<?xml version="1.0" encoding="UTF-8" standalone="no"?>
<svg
   xmlns:osb="http://www.openswatchbook.org/uri/2009/osb"
   xmlns:dc="http://purl.org/dc/elements/1.1/"
   xmlns:cc="http://creativecommons.org/ns#"
   xmlns:rdf="http://www.w3.org/1999/02/22-rdf-syntax-ns#"
   xmlns:svg="http://www.w3.org/2000/svg"
   xmlns="http://www.w3.org/2000/svg"
   xmlns:sodipodi="http://sodipodi.sourceforge.net/DTD/sodipodi-0.dtd"
   xmlns:inkscape="http://www.inkscape.org/namespaces/inkscape"
   height="16"
   version="1.1"
   width="16"
   enable-background="new"
   id="svg2"
   inkscape:version="0.91 r13725"
   sodipodi:docname="process-working-symbolic.svg">
  <sodipodi:namedview
     pagecolor="#ffffff"
     bordercolor="#666666"
     borderopacity="1"
     objecttolerance="10"
     gridtolerance="10"
     guidetolerance="10"
     inkscape:pageopacity="0"
     inkscape:pageshadow="2"
     inkscape:window-width="1920"
     inkscape:window-height="1122"
     id="namedview12"
     showgrid="false"
     inkscape:zoom="15.81"
     inkscape:cx="-8.1328273"
     inkscape:cy="7.8644068"
     inkscape:window-x="0"
     inkscape:window-y="32"
     inkscape:window-maximized="1"
     inkscape:current-layer="layer9" />
  <metadata
     id="metadata90">
    <rdf:RDF>
      <cc:Work
         rdf:about="">
        <dc:format>image/svg+xml</dc:format>
        <dc:type
           rdf:resource="http://purl.org/dc/dcmitype/StillImage" />
      </cc:Work>
    </rdf:RDF>
  </metadata>
  <defs
     id="defs7386">
    <linearGradient
       id="linearGradient5606"
       osb:paint="solid">
      <stop
         id="stop5608" />
    </linearGradient>
  </defs>
  <g
     inkscape:groupmode="layer"
     id="layer9"
     inkscape:label="status"
     transform="translate(-521.02081,183)">
    <path
       style="opacity:1;fill:#000000;fill-opacity:1;stroke:none;stroke-width:4.65899992;stroke-miterlimit:4;stroke-dasharray:18.636, 18.63599999999999923;stroke-dashoffset:0;stroke-opacity:1"
       d="M 8 0.66210938 A 7.3371282 7.3371282 0 0 0 0.66210938 8 A 7.3371282 7.3371282 0 0 0 8 15.337891 A 7.3371282 7.3371282 0 0 0 15.337891 8 A 7.3371282 7.3371282 0 0 0 8 0.66210938 z M 9.1074219 3.7929688 A 5.1865907 5.1865907 0 0 1 9.625 3.8183594 A 5.1865907 5.1865907 0 0 1 10.138672 3.8964844 A 5.1865907 5.1865907 0 0 1 10.640625 4.0234375 A 5.1865907 5.1865907 0 0 1 11.126953 4.2011719 A 5.1865907 5.1865907 0 0 1 11.595703 4.4277344 A 5.1865907 5.1865907 0 0 1 12.037109 4.6992188 A 5.1865907 5.1865907 0 0 1 12.449219 5.0117188 A 5.1865907 5.1865907 0 0 1 12.828125 5.3652344 A 5.1865907 5.1865907 0 0 1 13.171875 5.7558594 A 5.1865907 5.1865907 0 0 1 13.472656 6.1777344 A 5.1865907 5.1865907 0 0 1 13.730469 6.6269531 A 5.1865907 5.1865907 0 0 1 13.941406 7.0996094 A 5.1865907 5.1865907 0 0 1 14.105469 7.5917969 A 5.1865907 5.1865907 0 0 1 14.21875 8.0976562 A 5.1865907 5.1865907 0 0 1 14.28125 8.6113281 A 5.1865907 5.1865907 0 0 1 14.294922 8.9785156 A 5.1865907 5.1865907 0 0 1 14.269531 9.4960938 A 5.1865907 5.1865907 0 0 1 14.191406 10.009766 A 5.1865907 5.1865907 0 0 1 14.0625 10.511719 A 5.1865907 5.1865907 0 0 1 13.884766 10.998047 A 5.1865907 5.1865907 0 0 1 13.660156 11.464844 A 5.1865907 5.1865907 0 0 1 13.388672 11.908203 A 5.1865907 5.1865907 0 0 1 13.074219 12.320312 A 5.1865907 5.1865907 0 0 1 12.722656 12.699219 A 5.1865907 5.1865907 0 0 1 12.332031 13.041016 A 5.1865907 5.1865907 0 0 1 11.910156 13.34375 A 5.1865907 5.1865907 0 0 1 11.460938 13.601562 A 5.1865907 5.1865907 0 0 1 10.988281 13.8125 A 5.1865907 5.1865907 0 0 1 10.496094 13.976562 A 5.1865907 5.1865907 0 0 1 9.9902344 14.089844 A 5.1865907 5.1865907 0 0 1 9.4746094 14.152344 A 5.1865907 5.1865907 0 0 1 9.1074219 14.166016 A 5.1865907 5.1865907 0 0 1 8.5898438 14.140625 A 5.1865907 5.1865907 0 0 1 8.078125 14.0625 A 5.1865907 5.1865907 0 0 1 7.5761719 13.933594 A 5.1865907 5.1865907 0 0 1 7.0878906 13.755859 A 5.1865907 5.1865907 0 0 1 6.6210938 13.53125 A 5.1865907 5.1865907 0 0 1 6.1796875 13.259766 A 5.1865907 5.1865907 0 0 1 5.7675781 12.945312 A 5.1865907 5.1865907 0 0 1 5.3867188 12.591797 A 5.1865907 5.1865907 0 0 1 5.0449219 12.203125 A 5.1865907 5.1865907 0 0 1 4.7441406 11.78125 A 5.1865907 5.1865907 0 0 1 4.4863281 11.332031 A 5.1865907 5.1865907 0 0 1 4.2734375 10.859375 A 5.1865907 5.1865907 0 0 1 4.1113281 10.367188 A 5.1865907 5.1865907 0 0 1 3.9960938 9.8613281 A 5.1865907 5.1865907 0 0 1 3.9335938 9.3457031 A 5.1865907 5.1865907 0 0 1 3.921875 8.9785156 A 5.1865907 5.1865907 0 0 1 3.9472656 8.4609375 A 5.1865907 5.1865907 0 0 1 4.0253906 7.9492188 A 5.1865907 5.1865907 0 0 1 4.1523438 7.4472656 A 5.1865907 5.1865907 0 0 1 4.3300781 6.9589844 A 5.1865907 5.1865907 0 0 1 4.5566406 6.4921875 A 5.1865907 5.1865907 0 0 1 4.828125 6.0507812 A 5.1865907 5.1865907 0 0 1 5.140625 5.6386719 A 5.1865907 5.1865907 0 0 1 5.4941406 5.2578125 A 5.1865907 5.1865907 0 0 1 5.8847656 4.9160156 A 5.1865907 5.1865907 0 0 1 6.3066406 4.6152344 A 5.1865907 5.1865907 0 0 1 6.7558594 4.3574219 A 5.1865907 5.1865907 0 0 1 7.2285156 4.1445312 A 5.1865907 5.1865907 0 0 1 7.7207031 3.9824219 A 5.1865907 5.1865907 0 0 1 8.2265625 3.8671875 A 5.1865907 5.1865907 0 0 1 8.7421875 3.8046875 A 5.1865907 5.1865907 0 0 1 9.1074219 3.7929688 z "
       id="path4140"
       transform="translate(521.02081,-183)" />
  </g>
</svg>
