<?xml version="1.0" encoding="UTF-8" standalone="no"?>
<!-- Created with Inkscape (http://www.inkscape.org/) -->

<svg
   xmlns:osb="http://www.openswatchbook.org/uri/2009/osb"
   xmlns:dc="http://purl.org/dc/elements/1.1/"
   xmlns:cc="http://creativecommons.org/ns#"
   xmlns:rdf="http://www.w3.org/1999/02/22-rdf-syntax-ns#"
   xmlns:svg="http://www.w3.org/2000/svg"
   xmlns="http://www.w3.org/2000/svg"
   xmlns:sodipodi="http://sodipodi.sourceforge.net/DTD/sodipodi-0.dtd"
   xmlns:inkscape="http://www.inkscape.org/namespaces/inkscape"
   sodipodi:docname="view-grid-symbolic.svg"
   inkscape:export-filename="/home/sam/img/source-symbolic.png"
   inkscape:export-xdpi="270"
   inkscape:export-ydpi="270"
   height="16"
   id="svg7384"
   style="enable-background:new"
   inkscape:version="0.91 r13725"
   version="1.1"
   width="16">
  <sodipodi:namedview
     inkscape:bbox-nodes="true"
     inkscape:bbox-paths="true"
     bordercolor="#666666"
     borderlayer="false"
     borderopacity="1"
     inkscape:current-layer="layer12"
     inkscape:cx="1.4985767"
     inkscape:cy="7.1449513"
     gridtolerance="10"
     inkscape:guide-bbox="true"
     guidetolerance="10"
     id="namedview88"
     inkscape:object-nodes="true"
     inkscape:object-paths="true"
     objecttolerance="10"
     pagecolor="#333333"
     inkscape:pageopacity="1"
     inkscape:pageshadow="2"
     showborder="true"
     showgrid="true"
     showguides="false"
     inkscape:showpageshadow="true"
     inkscape:snap-bbox="true"
     inkscape:snap-bbox-edge-midpoints="false"
     inkscape:snap-bbox-midpoints="false"
     inkscape:snap-center="false"
     inkscape:snap-global="true"
     inkscape:snap-grids="true"
     inkscape:snap-intersection-paths="true"
     inkscape:snap-midpoints="true"
     inkscape:snap-nodes="true"
     inkscape:snap-object-midpoints="true"
     inkscape:snap-others="true"
     inkscape:snap-page="false"
     inkscape:snap-smooth-nodes="true"
     inkscape:snap-to-guides="true"
     inkscape:window-height="1137"
     inkscape:window-maximized="1"
     inkscape:window-width="1920"
     inkscape:window-x="0"
     inkscape:window-y="28"
     inkscape:zoom="45.67">
    <inkscape:grid
       color="#000000"
       dotted="false"
       empcolor="#0800ff"
       empopacity="0.4627451"
       empspacing="4"
       enabled="false"
       id="grid4866"
       opacity="1"
       originx="-57.9998px"
       originy="-133.00333px"
       snapvisiblegridlinesonly="true"
       spacingx="0.25px"
       spacingy="0.25px"
       type="xygrid"
       visible="true" />
    <inkscape:grid
       type="xygrid"
       id="grid4197"
       enabled="false" />
    <inkscape:grid
       type="xygrid"
       id="grid4199" />
  </sodipodi:namedview>
  <metadata
     id="metadata90">
    <rdf:RDF>
      <cc:Work
         rdf:about="">
        <dc:format>image/svg+xml</dc:format>
        <dc:type
           rdf:resource="http://purl.org/dc/dcmitype/StillImage" />
        <dc:title>Moka Symbolic Icon Theme</dc:title>
      </cc:Work>
    </rdf:RDF>
  </metadata>
  <title
     id="title8473">Moka Symbolic Icon Theme</title>
  <defs
     id="defs7386">
    <linearGradient
       id="linearGradient5606"
       osb:paint="solid">
      <stop
         id="stop5608"
         offset="0"
         style="stop-color:#000000;stop-opacity:1;" />
    </linearGradient>
    <filter
       inkscape:collect="always"
       color-interpolation-filters="sRGB"
       id="filter7554">
      <feBlend
         inkscape:collect="always"
         id="feBlend7556"
         in2="BackgroundImage"
         mode="darken" />
    </filter>
  </defs>
  <g
     inkscape:groupmode="layer"
     id="layer9"
     inkscape:label="status"
     style="display:inline"
     transform="translate(-299,-83.996674)" />
  <g
     inkscape:groupmode="layer"
     id="layer10"
     inkscape:label="devices"
     style="display:inline;filter:url(#filter7554)"
     transform="translate(-299,-83.996674)" />
  <g
     inkscape:groupmode="layer"
     id="layer1"
     inkscape:label="places"
     style="display:inline"
     transform="translate(-57.9998,-700.99667)" />
  <g
     inkscape:groupmode="layer"
     id="layer14"
     inkscape:label="mimetypes"
     style="display:inline"
     transform="translate(-299,-83.996674)" />
  <g
     inkscape:groupmode="layer"
     id="layer15"
     inkscape:label="emblems"
     style="display:inline"
     transform="translate(-299,-83.996674)" />
  <g
     inkscape:groupmode="layer"
     id="g71291"
     inkscape:label="emotes"
     style="display:inline"
     transform="translate(-299,-83.996674)" />
  <g
     inkscape:groupmode="layer"
     id="layer2"
     inkscape:label="categories"
     style="display:inline"
     transform="translate(-57.9998,-550.99667)" />
  <g
     inkscape:groupmode="layer"
     id="g6058"
     inkscape:label="apps"
     style="display:inline"
     transform="translate(-57.9998,-550.99667)" />
  <g
     inkscape:groupmode="layer"
     id="layer12"
     inkscape:label="actions"
     style="display:inline"
     transform="translate(-299,-83.996674)">
    <path
       style="opacity:1;fill:#000000;fill-opacity:1;fill-rule:evenodd;stroke:none;stroke-width:1px;stroke-linecap:butt;stroke-linejoin:miter;stroke-opacity:1"
       d="m 290.54872,84.996674 0,6 6,0 0,-6 z"
       id="path4165"
       inkscape:connector-curvature="0" />
    <path
       style="opacity:1;fill:#000000;fill-opacity:1;fill-rule:evenodd;stroke:none;stroke-width:1px;stroke-linecap:butt;stroke-linejoin:miter;stroke-opacity:1"
       d="m 288.54872,92.996674 -6,0 0,6 6,0 z"
       id="path4169"
       inkscape:connector-curvature="0" />
    <path
       style="display:inline;opacity:1;fill:#000000;fill-opacity:1;fill-rule:evenodd;stroke:none;stroke-width:1px;stroke-linecap:butt;stroke-linejoin:miter;stroke-opacity:1;enable-background:new"
       d="m 290.54872,92.996674 0,6 6,0 0,-6 z"
       id="path4165-1"
       inkscape:connector-curvature="0" />
    <path
       style="display:inline;opacity:1;fill:#000000;fill-opacity:1;fill-rule:evenodd;stroke:none;stroke-width:1px;stroke-linecap:butt;stroke-linejoin:miter;stroke-opacity:1;enable-background:new"
       d="m 282.54872,84.996674 0,6 6,0 0,-6 z"
       id="path4165-4"
       inkscape:connector-curvature="0" />
    <path
       style="opacity:0.40500004;fill:#000000;fill-opacity:1;fill-rule:evenodd;stroke:none;stroke-width:1px;stroke-linecap:butt;stroke-linejoin:miter;stroke-opacity:1"
       d="m 295.54872,90.996674 0,2 -5,0 0,5 -2,0 0,-5 -5,0 0,-2 5,0 0,-5 2,0 0,5 z"
       id="path4174"
       inkscape:connector-curvature="0"
       sodipodi:nodetypes="ccccccccccccc" />
    <path
       style="opacity:1;fill:#ffffff;fill-opacity:1;stroke:none;stroke-width:30.79999924;stroke-linejoin:round;stroke-miterlimit:4;stroke-dasharray:none;stroke-dashoffset:0;stroke-opacity:1"
       d="m 307,83.996674 a 8.0000001,8.0000001 0 0 0 -8,8 8.0000001,8.0000001 0 0 0 8,8 8.0000001,8.0000001 0 0 0 8,-8 8.0000001,8.0000001 0 0 0 -8,-8 z m -3.99554,4.392858 a 1.2214875,1.2214875 0 0 1 1.22098,1.220981 1.2214875,1.2214875 0 0 1 -1.22098,1.220982 1.2214875,1.2214875 0 0 1 -1.22321,-1.220982 1.2214875,1.2214875 0 0 1 1.22321,-1.220981 z m 3.99554,0 a 1.2214875,1.2214875 0 0 1 1.22098,1.220981 A 1.2214875,1.2214875 0 0 1 307,90.831495 1.2214875,1.2214875 0 0 1 305.77902,89.610513 1.2214875,1.2214875 0 0 1 307,88.389532 Z m 3.99554,0 a 1.2214875,1.2214875 0 0 1 1.22321,1.220981 1.2214875,1.2214875 0 0 1 -1.22321,1.220982 1.2214875,1.2214875 0 0 1 -1.22099,-1.220982 1.2214875,1.2214875 0 0 1 1.22099,-1.220981 z m -7.99108,4.772321 a 1.2214875,1.2214875 0 0 1 1.22098,1.220983 1.2214875,1.2214875 0 0 1 -1.22098,1.22098 1.2214875,1.2214875 0 0 1 -1.22321,-1.22098 1.2214875,1.2214875 0 0 1 1.22321,-1.220983 z m 3.99554,0 a 1.2214875,1.2214875 0 0 1 1.22098,1.220983 A 1.2214875,1.2214875 0 0 1 307,95.603816 1.2214875,1.2214875 0 0 1 305.77902,94.382836 1.2214875,1.2214875 0 0 1 307,93.161853 Z m 3.99554,0 a 1.2214875,1.2214875 0 0 1 1.22321,1.220983 1.2214875,1.2214875 0 0 1 -1.22321,1.22098 1.2214875,1.2214875 0 0 1 -1.22099,-1.22098 1.2214875,1.2214875 0 0 1 1.22099,-1.220983 z"
       id="path4154"
       inkscape:connector-curvature="0" />
  </g>
</svg>
