<?xml version="1.0" encoding="UTF-8" standalone="no"?>
<!-- Created with Inkscape (http://www.inkscape.org/) -->

<svg
   xmlns:dc="http://purl.org/dc/elements/1.1/"
   xmlns:cc="http://creativecommons.org/ns#"
   xmlns:rdf="http://www.w3.org/1999/02/22-rdf-syntax-ns#"
   xmlns:svg="http://www.w3.org/2000/svg"
   xmlns="http://www.w3.org/2000/svg"
   xmlns:sodipodi="http://sodipodi.sourceforge.net/DTD/sodipodi-0.dtd"
   xmlns:inkscape="http://www.inkscape.org/namespaces/inkscape"
   width="64px"
   height="64px"
   id="svg5356"
   version="1.1"
   inkscape:version="0.91 r13725"
   sodipodi:docname="folder.svg">
  <defs
     id="defs5358">
    <clipPath
       clipPathUnits="userSpaceOnUse"
       id="clipPath12225">
      <path
         id="path12227"
         d="m 310.5,158 c -1.50002,0 -1.5,1.46875 -1.5,1.46875 L 309,172 l -1.5,0 c -1.5,0 -1.5,1.28125 -1.5,1.28125 l 1.34375,35.4375 c 0.0382,0.40456 0.24888,0.69804 0.46875,0.90625 0.21986,0.2082 0.48146,0.37682 0.90625,0.375 l 54.5625,0 c 0.42451,0.001 0.65511,-0.16676 0.875,-0.375 0.2199,-0.20825 0.43064,-0.50187 0.46875,-0.90625 l 1.375,-35.5 c 0,0 -0.009,-1.21877 -1.375,-1.21875 l -1.625,0 0,-7.5 c 0,0 0,-1.5064 -1.5,-1.5 l -21.03125,0.0937 C 335.46875,163.09375 336,158 331,158 l -20.5,0 z"
         style="font-size:medium;font-style:normal;font-variant:normal;font-weight:normal;font-stretch:normal;text-indent:0;text-align:start;text-decoration:none;line-height:normal;letter-spacing:normal;word-spacing:normal;text-transform:none;direction:ltr;block-progression:tb;writing-mode:lr-tb;text-anchor:start;baseline-shift:baseline;color:#000000;fill:#000000;fill-opacity:1;stroke:none;stroke-width:2;marker:none;visibility:visible;display:inline;overflow:visible;enable-background:accumulate;font-family:Sans;-inkscape-font-specification:Sans"
         inkscape:connector-curvature="0" />
    </clipPath>
    <linearGradient
       id="linearGradient11342">
      <stop
         style="stop-color:#ffffff;stop-opacity:1;"
         offset="0"
         id="stop11344" />
      <stop
         style="stop-color:#ffffff;stop-opacity:0;"
         offset="1"
         id="stop11346" />
    </linearGradient>
    <clipPath
       clipPathUnits="userSpaceOnUse"
       id="clipPath12267">
      <path
         style="font-size:medium;font-style:normal;font-variant:normal;font-weight:normal;font-stretch:normal;text-indent:0;text-align:start;text-decoration:none;line-height:normal;letter-spacing:normal;word-spacing:normal;text-transform:none;direction:ltr;block-progression:tb;writing-mode:lr-tb;text-anchor:start;baseline-shift:baseline;color:#000000;fill:#000000;fill-opacity:1;stroke:none;stroke-width:1;marker:none;visibility:visible;display:inline;overflow:visible;enable-background:accumulate;font-family:Sans;-inkscape-font-specification:Sans"
         d="m 307.5,167.99972 c -0.35457,0 -0.64506,0.0626 -0.875,0.1875 -0.22994,0.12486 -0.36622,0.31678 -0.4375,0.4375 -0.082,0.13891 -0.12908,0.27141 -0.15625,0.375 -0.0272,0.10359 -0.0274,0.12696 -0.0312,0.21875 l 0,0.0312 0,0.0312 0,0.0312 1.34375,35.34375 0,0.0312 0,0.0312 0,0.0312 c 0.0473,0.36803 0.25881,0.67618 0.46875,0.875 0.0967,0.0916 0.21058,0.16825 0.375,0.25 0.16442,0.0817 0.34434,0.12566 0.53125,0.125 l 54.5625,0 c 0.1872,4.4e-4 0.3698,-0.0362 0.53125,-0.125 0.16145,-0.0888 0.25774,-0.16855 0.34375,-0.25 0.21008,-0.19895 0.42151,-0.50693 0.46875,-0.875 0.0108,-0.10912 0.008,-0.11455 0,-0.0312 l 0,-0.0312 1.375,-35.4375 c 0,0 0.0152,-0.32086 -0.15625,-0.625 -0.0644,-0.11425 -0.19054,-0.30572 -0.40625,-0.4375 -0.21571,-0.13178 -0.48648,-0.18751 -0.8125,-0.1875 l -57.125,0 z"
         id="path12269"
         inkscape:connector-curvature="0"
         sodipodi:nodetypes="ccccccccccccccccsccccccsccc" />
    </clipPath>
    <linearGradient
       id="linearGradient4968">
      <stop
         id="stop4970"
         offset="0"
         style="stop-color:#f1e6f4;stop-opacity:1;" />
      <stop
         style="stop-color:#c9bcce;stop-opacity:1;"
         offset="1"
         id="stop4972" />
    </linearGradient>
    <linearGradient
       id="linearGradient11359">
      <stop
         style="stop-color:#d5cbd7;stop-opacity:1;"
         offset="0"
         id="stop11361" />
      <stop
         style="stop-color:#d9bfdf;stop-opacity:1;"
         offset="1"
         id="stop11363" />
    </linearGradient>
  </defs>
  <sodipodi:namedview
     id="base"
     pagecolor="#ffffff"
     bordercolor="#666666"
     borderopacity="1.0"
     inkscape:pageopacity="0.0"
     inkscape:pageshadow="2"
     inkscape:zoom="2.02"
     inkscape:cx="-199.22772"
     inkscape:cy="32"
     inkscape:current-layer="layer2"
     showgrid="false"
     showborder="true"
     inkscape:document-units="px"
     inkscape:grid-bbox="true"
     inkscape:window-width="1920"
     inkscape:window-height="1132"
     inkscape:window-x="0"
     inkscape:window-y="32"
     inkscape:window-maximized="1"
     objecttolerance="1"
     guidetolerance="1">
    <inkscape:grid
       type="xygrid"
       id="grid5415"
       empspacing="4"
       visible="true"
       enabled="true"
       snapvisiblegridlinesonly="true" />
  </sodipodi:namedview>
  <metadata
     id="metadata5361">
    <rdf:RDF>
      <cc:Work
         rdf:about="">
        <dc:format>image/svg+xml</dc:format>
        <dc:type
           rdf:resource="http://purl.org/dc/dcmitype/StillImage" />
        <dc:title></dc:title>
      </cc:Work>
    </rdf:RDF>
  </metadata>
  <g
     id="layer1"
     inkscape:label="Background"
     inkscape:groupmode="layer" />
  <g
     inkscape:groupmode="layer"
     id="layer2"
     inkscape:label="Symbol">
    <path
       style="fill:#2c5aa0"
       id="path4140"
       inkscape:connector-curvature="0"
       sodipodi:nodetypes="ccsccsccc"
       d="M 53.476874,50.875378 53.435284,13.16451 c 0,0 0.08317,-1.237775 -1.164501,-2.104217 -0.873374,-0.618887 -2.536946,-0.536369 -2.536946,-0.536369 l -36.265841,-0.08252 c 0,0 -1.414036,0.123777 -2.370589,0.907701 -1.1229101,0.866442 -1.1644984,1.980439 -1.1644984,1.980439 l 0.083173,37.710869 43.46079,-0.165037 z" />
    <path
       style="fill:#3771c8"
       id="path4138"
       inkscape:connector-curvature="0"
       sodipodi:nodetypes="ccsccsccsccsc"
       d="m 2.2388904,24.428259 7.2781229,25.621936 c 0,0 0.4158933,1.402811 1.3724457,2.351772 1.247678,1.237774 2.620123,1.155256 2.620123,1.155256 l 36.390614,0 c 0,0 1.497214,0.08252 2.703303,-1.031479 0.914964,-0.866442 1.164499,-2.269253 1.164499,-2.269253 l 7.860373,-25.993268 c 0,0 0.914964,-2.43429 0.291125,-4.084657 -1.081321,-2.764363 -3.909392,-2.43429 -3.909392,-2.43429 l -51.9865897,0.04126 c 0,0 -2.2874099,-0.330073 -3.7430341,1.98044 -0.9149643,1.567848 -0.041587,4.662284 -0.041587,4.662284 l 0,0 z" />
  </g>
</svg>
