<?xml version="1.0" encoding="UTF-8" standalone="no"?>
<!-- Created with Inkscape (http://www.inkscape.org/) -->

<svg
   xmlns:dc="http://purl.org/dc/elements/1.1/"
   xmlns:cc="http://creativecommons.org/ns#"
   xmlns:rdf="http://www.w3.org/1999/02/22-rdf-syntax-ns#"
   xmlns:svg="http://www.w3.org/2000/svg"
   xmlns="http://www.w3.org/2000/svg"
   xmlns:xlink="http://www.w3.org/1999/xlink"
   xmlns:sodipodi="http://sodipodi.sourceforge.net/DTD/sodipodi-0.dtd"
   xmlns:inkscape="http://www.inkscape.org/namespaces/inkscape"
   width="96"
   height="96"
   id="svg5356"
   version="1.1"
   inkscape:version="0.91 r13725"
   sodipodi:docname="folder-videos.svg">
  <defs
     id="defs5358">
    <clipPath
       clipPathUnits="userSpaceOnUse"
       id="clipPath12225">
      <path
         id="path12227"
         d="m 310.5,158 c -1.50002,0 -1.5,1.46875 -1.5,1.46875 L 309,172 l -1.5,0 c -1.5,0 -1.5,1.28125 -1.5,1.28125 l 1.34375,35.4375 c 0.0382,0.40456 0.24888,0.69804 0.46875,0.90625 0.21986,0.2082 0.48146,0.37682 0.90625,0.375 l 54.5625,0 c 0.42451,0.001 0.65511,-0.16676 0.875,-0.375 0.2199,-0.20825 0.43064,-0.50187 0.46875,-0.90625 l 1.375,-35.5 c 0,0 -0.009,-1.21877 -1.375,-1.21875 l -1.625,0 0,-7.5 c 0,0 0,-1.5064 -1.5,-1.5 l -21.03125,0.0937 C 335.46875,163.09375 336,158 331,158 l -20.5,0 z"
         style="color:#000000;font-style:normal;font-variant:normal;font-weight:normal;font-stretch:normal;font-size:medium;line-height:normal;font-family:Sans;-inkscape-font-specification:Sans;text-indent:0;text-align:start;text-decoration:none;text-decoration-line:none;letter-spacing:normal;word-spacing:normal;text-transform:none;direction:ltr;block-progression:tb;writing-mode:lr-tb;baseline-shift:baseline;text-anchor:start;display:inline;overflow:visible;visibility:visible;fill:#000000;fill-opacity:1;stroke:none;stroke-width:2;marker:none;enable-background:accumulate"
         inkscape:connector-curvature="0" />
    </clipPath>
    <linearGradient
       id="linearGradient11342">
      <stop
         style="stop-color:#ffffff;stop-opacity:1;"
         offset="0"
         id="stop11344" />
      <stop
         style="stop-color:#ffffff;stop-opacity:0;"
         offset="1"
         id="stop11346" />
    </linearGradient>
    <clipPath
       clipPathUnits="userSpaceOnUse"
       id="clipPath12267">
      <path
         style="color:#000000;font-style:normal;font-variant:normal;font-weight:normal;font-stretch:normal;font-size:medium;line-height:normal;font-family:Sans;-inkscape-font-specification:Sans;text-indent:0;text-align:start;text-decoration:none;text-decoration-line:none;letter-spacing:normal;word-spacing:normal;text-transform:none;direction:ltr;block-progression:tb;writing-mode:lr-tb;baseline-shift:baseline;text-anchor:start;display:inline;overflow:visible;visibility:visible;fill:#000000;fill-opacity:1;stroke:none;stroke-width:1;marker:none;enable-background:accumulate"
         d="m 307.5,167.99972 c -0.35457,0 -0.64506,0.0626 -0.875,0.1875 -0.22994,0.12486 -0.36622,0.31678 -0.4375,0.4375 -0.082,0.13891 -0.12908,0.27141 -0.15625,0.375 -0.0272,0.10359 -0.0274,0.12696 -0.0312,0.21875 l 0,0.0312 0,0.0312 0,0.0312 1.34375,35.34375 0,0.0312 0,0.0312 0,0.0312 c 0.0473,0.36803 0.25881,0.67618 0.46875,0.875 0.0967,0.0916 0.21058,0.16825 0.375,0.25 0.16442,0.0817 0.34434,0.12566 0.53125,0.125 l 54.5625,0 c 0.1872,4.4e-4 0.3698,-0.0362 0.53125,-0.125 0.16145,-0.0888 0.25774,-0.16855 0.34375,-0.25 0.21008,-0.19895 0.42151,-0.50693 0.46875,-0.875 0.0108,-0.10912 0.008,-0.11455 0,-0.0312 l 0,-0.0312 1.375,-35.4375 c 0,0 0.0152,-0.32086 -0.15625,-0.625 -0.0644,-0.11425 -0.19054,-0.30572 -0.40625,-0.4375 -0.21571,-0.13178 -0.48648,-0.18751 -0.8125,-0.1875 l -57.125,0 z"
         id="path12269"
         inkscape:connector-curvature="0"
         sodipodi:nodetypes="ccccccccccccccccsccccccsccc" />
    </clipPath>
    <linearGradient
       id="linearGradient4968">
      <stop
         id="stop4970"
         offset="0"
         style="stop-color:#f1e6f4;stop-opacity:1;" />
      <stop
         style="stop-color:#c9bcce;stop-opacity:1;"
         offset="1"
         id="stop4972" />
    </linearGradient>
    <linearGradient
       id="linearGradient11359">
      <stop
         style="stop-color:#d5cbd7;stop-opacity:1;"
         offset="0"
         id="stop11361" />
      <stop
         style="stop-color:#d9bfdf;stop-opacity:1;"
         offset="1"
         id="stop11363" />
    </linearGradient>
    <clipPath
       clipPathUnits="userSpaceOnUse"
       id="clipPath4275">
      <path
         id="path4277"
         d="m 6,32.5 c -0.8333333,0 -1.1123629,0.341913 -1.3027344,0.722656 -0.1889125,0.377819 -0.1951978,0.765475 -0.1953125,0.771485 L 7.5,83.984375 7.5,84 c 0,0 0.00689,0.396601 0.1972656,0.777344 C 7.8876371,85.158087 8.1666667,85.5 9,85.5 l 78,0 c 0.833333,0 1.112363,-0.341913 1.302734,-0.722656 C 88.4931,84.396601 88.5,84 88.5,84 l 0,-0.02539 0.002,-0.02539 c 0.0015,-0.0148 2.993294,-49.908195 2.996094,-49.955078 -1.15e-4,-0.006 -0.0064,-0.393666 -0.195313,-0.771485 C 91.112363,32.841913 90.833333,32.5 90,32.5 l -84,0 z"
         style="color:#000000;font-style:normal;font-variant:normal;font-weight:normal;font-stretch:normal;font-size:medium;line-height:normal;font-family:Sans;-inkscape-font-specification:Sans;text-indent:0;text-align:start;text-decoration:none;text-decoration-line:none;letter-spacing:normal;word-spacing:normal;text-transform:none;direction:ltr;block-progression:tb;writing-mode:lr-tb;baseline-shift:baseline;text-anchor:start;display:inline;overflow:visible;visibility:visible;fill:url(#linearGradient4279);fill-opacity:1;stroke:none;stroke-width:1;marker:none;enable-background:accumulate"
         inkscape:connector-curvature="0" />
    </clipPath>
    <linearGradient
       inkscape:collect="always"
       xlink:href="#linearGradient4968"
       id="linearGradient4279"
       gradientUnits="userSpaceOnUse"
       gradientTransform="matrix(1.466657,0,0,1.466657,-444.79704,-215.8642)"
       x1="368"
       y1="148"
       x2="368"
       y2="212" />
    <clipPath
       clipPathUnits="userSpaceOnUse"
       id="clipPath4285">
      <path
         id="path4287"
         d="m 11,12.5 c -0.833333,0 -1.1123629,0.341913 -1.3027344,0.722656 C 9.50689,13.603399 9.5,14 9.5,14 l 0,27.5 77,0 0,-21.5 c 0,-0.833333 -0.341913,-1.112363 -0.722656,-1.302734 C 85.396601,18.5069 85,18.5 85,18.5 l -29,0 c -4.125,0 -6.300781,-1.599609 -8.300781,-3.099609 C 45.699219,13.900391 43.875,12.5 40,12.5 l -29,0 z"
         style="color:#000000;font-style:normal;font-variant:normal;font-weight:normal;font-stretch:normal;font-size:medium;line-height:normal;font-family:Sans;-inkscape-font-specification:Sans;text-indent:0;text-align:start;text-decoration:none;text-decoration-line:none;letter-spacing:normal;word-spacing:normal;text-transform:none;direction:ltr;block-progression:tb;writing-mode:lr-tb;baseline-shift:baseline;text-anchor:start;display:inline;overflow:visible;visibility:visible;fill:url(#linearGradient4289);fill-opacity:1;stroke:none;stroke-width:1;marker:none;enable-background:accumulate"
         inkscape:connector-curvature="0" />
    </clipPath>
    <linearGradient
       inkscape:collect="always"
       xlink:href="#linearGradient11359"
       id="linearGradient4289"
       gradientUnits="userSpaceOnUse"
       gradientTransform="matrix(1.466657,0,0,1.466657,-444.79704,-221.73124)"
       x1="336"
       y1="164"
       x2="336"
       y2="180" />
    <filter
       inkscape:collect="always"
       style="color-interpolation-filters:sRGB"
       id="filter4252"
       x="-0.0348"
       width="1.0696"
       y="-0.0348"
       height="1.0696">
      <feGaussianBlur
         inkscape:collect="always"
         stdDeviation="0.60947376"
         id="feGaussianBlur4254" />
    </filter>
    <filter
       inkscape:collect="always"
       style="color-interpolation-filters:sRGB"
       id="filter4502"
       x="-0.40268572"
       width="1.8053714"
       y="-0.37584"
       height="1.75168">
      <feGaussianBlur
         inkscape:collect="always"
         stdDeviation="0.2202708"
         id="feGaussianBlur4504" />
    </filter>
  </defs>
  <sodipodi:namedview
     id="base"
     pagecolor="#ffffff"
     bordercolor="#666666"
     borderopacity="1.0"
     inkscape:pageopacity="0.0"
     inkscape:pageshadow="2"
     inkscape:zoom="7.54"
     inkscape:cx="37.824176"
     inkscape:cy="48.355186"
     inkscape:current-layer="layer1"
     showgrid="false"
     showborder="true"
     inkscape:document-units="px"
     inkscape:grid-bbox="true"
     inkscape:window-width="1920"
     inkscape:window-height="1135"
     inkscape:window-x="0"
     inkscape:window-y="31"
     inkscape:window-maximized="1"
     inkscape:snap-nodes="true"
     inkscape:object-paths="true"
     inkscape:snap-intersection-paths="true"
     inkscape:object-nodes="true"
     inkscape:snap-smooth-nodes="true"
     objecttolerance="1"
     guidetolerance="1"
     gridtolerance="1">
    <inkscape:grid
       type="xygrid"
       id="grid5415"
       empspacing="4"
       visible="true"
       enabled="true"
       snapvisiblegridlinesonly="true" />
  </sodipodi:namedview>
  <metadata
     id="metadata5361">
    <rdf:RDF>
      <cc:Work
         rdf:about="">
        <dc:format>image/svg+xml</dc:format>
        <dc:type
           rdf:resource="http://purl.org/dc/dcmitype/StillImage" />
        <dc:title></dc:title>
      </cc:Work>
    </rdf:RDF>
  </metadata>
  <g
     id="layer1"
     inkscape:label="Background"
     inkscape:groupmode="layer"
     transform="translate(0,32)">
    <path
       style="fill:#2c5aa0"
       id="path4140"
       inkscape:connector-curvature="0"
       sodipodi:nodetypes="ccsccsccc"
       d="m 81.329637,45.737332 -0.06452,-59.411828 c 0,0 0.129088,-1.95006 -1.807167,-3.315103 -1.355377,-0.975029 -3.937047,-0.845025 -3.937047,-0.845025 l -56.280421,-0.130004 c 0,0 -2.194422,0.195006 -3.678881,1.430043 -1.742626,1.365043 -1.807166,3.120096 -1.807166,3.120096 l 0.129077,59.41183 67.44615,-0.260009 z" />
    <path
       style="opacity:0.794;fill:#4d4d4d;fill-opacity:1;fill-rule:evenodd;stroke:none;stroke-width:1px;stroke-linecap:butt;stroke-linejoin:miter;stroke-opacity:1"
       d="m 48.119756,-15.519094 -8.105363,9.23946 12.758199,-0.1509632 7.832322,-9.2912688 z"
       id="path4510"
       inkscape:connector-curvature="0"
       sodipodi:nodetypes="ccccc" />
    <path
       style="opacity:0.794;fill:#000000;fill-opacity:1;fill-rule:evenodd;stroke:none;stroke-width:1px;stroke-linecap:butt;stroke-linejoin:miter;stroke-opacity:1"
       d="m 45.412033,-10.531707 -2.931914,3.597096 7.864881,1.6410555 2.224972,-3.1876783 c 0,0 -7.53552,-2.1015762 -7.157939,-2.0504732 z"
       id="path4586"
       inkscape:connector-curvature="0"
       sodipodi:nodetypes="ccccc" />
    <path
       style="fill:#3771c8"
       id="path4138"
       inkscape:connector-curvature="0"
       sodipodi:nodetypes="ccsccsccsccsc"
       d="M 1.8141736,4.0710509 13.108982,44.437292 c 0,0 0.645425,2.210069 2.129883,3.705114 1.936254,1.950061 4.066127,1.820057 4.066127,1.820057 l 56.47405,0 c 0,0 2.323502,0.130004 4.195216,-1.625052 1.419919,-1.365041 1.807166,-3.575109 1.807166,-3.575109 L 93.979822,3.8110425 c 0,0 1.419919,-3.83511832 0.451791,-6.4351977 -1.678089,-4.355134 -6.066923,-3.8351183 -6.066923,-3.8351183 l -80.6772142,0.065001 c 0,0 -3.5497922,-0.5200157 -5.8087537,3.1200961 -1.41991863,2.47007569 -0.064522,7.3452263 -0.064522,7.3452263 l 0,0 z" />
    <path
       style="opacity:0.794;fill:#000000;fill-opacity:1;fill-rule:evenodd;stroke:none;stroke-width:1px;stroke-linecap:butt;stroke-linejoin:miter;stroke-opacity:1"
       d="m 48.055099,-14.160005 7.814558,-0.05111 -2.443298,5.3428755 -7.447955,-2.6344275 z"
       id="path4584"
       inkscape:connector-curvature="0"
       sodipodi:nodetypes="ccccc" />
    <path
       style="fill:#808080;fill-opacity:1;fill-rule:evenodd;stroke:none;stroke-width:1px;stroke-linecap:butt;stroke-linejoin:miter;stroke-opacity:1;opacity:0.794"
       d="m 56.093444,4.6386427 -4.112596,-7.7301558 -3.861092,-12.4275809 12.575231,-0.204235 1.527845,13.2179917 5.551919,20.2641293 z"
       id="path4508"
       inkscape:connector-curvature="0"
       sodipodi:nodetypes="ccccccc" />
    <circle
       style="opacity:0.81699997;fill:#000000;fill-opacity:1;stroke:none;stroke-width:1;stroke-miterlimit:4;stroke-dasharray:none;stroke-opacity:1;filter:url(#filter4252)"
       id="path4156-6"
       cx="48.29245"
       cy="24.527699"
       r="21.016336" />
    <path
       style="fill:#bebebe;fill-opacity:1;fill-rule:evenodd;stroke:none;stroke-width:1px;stroke-linecap:butt;stroke-linejoin:miter;stroke-opacity:1;opacity:0.794"
       d="M 51.90259,-3.3433993 62.329767,-2.7543523 67.97366,17.103548 55.161885,3.4748417 Z"
       id="path4512"
       inkscape:connector-curvature="0"
       sodipodi:nodetypes="ccccc" />
    <path
       style="fill:#000000;fill-opacity:1;fill-rule:evenodd;stroke:none;stroke-width:1px;stroke-linecap:butt;stroke-linejoin:miter;stroke-opacity:1;opacity:0.794"
       d="m 64.228141,9.4494851 -2.831855,-0.051107 3.461157,3.5771959 z"
       id="path4588"
       inkscape:connector-curvature="0"
       sodipodi:nodetypes="cccc" />
    <path
       style="fill:#000000;fill-opacity:1;fill-rule:evenodd;stroke:none;stroke-width:1px;stroke-linecap:butt;stroke-linejoin:miter;stroke-opacity:1;opacity:0.794"
       d="m 58.186849,5.7189809 -1.447392,-3.6282981 5.789571,0.4088228 1.824973,6.132335 -3.272366,-0.1533084 z"
       id="path4576"
       inkscape:connector-curvature="0"
       sodipodi:nodetypes="cccccc" />
    <circle
       style="opacity:1;fill:#45566e;fill-opacity:1;stroke:#ffffff;stroke-width:1;stroke-miterlimit:4;stroke-dasharray:none;stroke-opacity:1"
       id="path4156"
       cx="47.344494"
       cy="23.122068"
       r="21.016336" />
    <circle
       style="opacity:1;fill:#7c90ad;fill-opacity:1;stroke:none;stroke-width:1;stroke-miterlimit:4;stroke-dasharray:none;stroke-opacity:1"
       id="path4158"
       cx="47.344494"
       cy="23.122068"
       r="2.8868594" />
    <ellipse
       style="opacity:1;fill:#000000;fill-opacity:1;stroke:none;stroke-width:1;stroke-miterlimit:4;stroke-dasharray:none;stroke-opacity:1"
       id="path4160"
       cx="47.447433"
       cy="11.921056"
       rx="5.7737188"
       ry="5.6582446" />
    <ellipse
       style="opacity:1;fill:#000000;fill-opacity:1;stroke:none;stroke-width:1;stroke-miterlimit:4;stroke-dasharray:none;stroke-opacity:1"
       id="path4160-0"
       cx="59.315411"
       cy="23.312572"
       rx="5.7737188"
       ry="5.6582446" />
    <ellipse
       style="opacity:1;fill:#000000;fill-opacity:1;stroke:none;stroke-width:1;stroke-miterlimit:4;stroke-dasharray:none;stroke-opacity:1"
       id="path4160-4"
       cx="47.447433"
       cy="34.342297"
       rx="5.7737188"
       ry="5.6582446" />
    <ellipse
       style="opacity:1;fill:#000000;fill-opacity:1;stroke:none;stroke-width:1;stroke-miterlimit:4;stroke-dasharray:none;stroke-opacity:1"
       id="path4160-8"
       cx="35.948734"
       cy="23.312572"
       rx="5.7737188"
       ry="5.6582446" />
    <ellipse
       style="opacity:0.81699997;fill:#ffffff;fill-opacity:1;stroke:none;stroke-width:1;stroke-miterlimit:4;stroke-dasharray:none;stroke-opacity:1;filter:url(#filter4502)"
       id="path4256"
       cx="48.292664"
       cy="21.755642"
       rx="0.65640509"
       ry="0.70329118" />
    <path
       style="fill:#000000;fill-opacity:1;fill-rule:evenodd;stroke:none;stroke-width:1px;stroke-linecap:butt;stroke-linejoin:miter;stroke-opacity:1;opacity:0.794"
       d="m 56.613596,1.4263468 5.726642,0.3577192 -1.604719,-4.5225971 0.03146,-0.7409906 -6.6742,-0.4689199 0.0017,0.8476937 z"
       id="path4578"
       inkscape:connector-curvature="0"
       sodipodi:nodetypes="ccccccc" />
    <path
       style="fill:#000000;fill-opacity:1;fill-rule:evenodd;stroke:none;stroke-width:1px;stroke-linecap:butt;stroke-linejoin:miter;stroke-opacity:1;opacity:0.794"
       d="m 53.844671,-4.2971655 6.985244,0.3066157 -0.566372,-5.5702038 -8.306776,-0.3577201 z"
       id="path4580"
       inkscape:connector-curvature="0"
       sodipodi:nodetypes="ccccc" />
    <path
       style="fill:#000000;fill-opacity:1;fill-rule:evenodd;stroke:none;stroke-width:1px;stroke-linecap:butt;stroke-linejoin:miter;stroke-opacity:1"
       d="m 52.019696,-11.042734 -1.762389,-4.511076 9.252062,-0.150263 0.187803,4.50803 z"
       id="path4582"
       inkscape:connector-curvature="0"
       sodipodi:nodetypes="ccccc" />
  </g>
  <g
     inkscape:groupmode="layer"
     id="layer2"
     inkscape:label="Symbol"
     transform="translate(0,32)" />
</svg>
