<?xml version="1.0" encoding="UTF-8" standalone="no"?>
<!-- Created with Inkscape (http://www.inkscape.org/) -->

<svg
   xmlns:dc="http://purl.org/dc/elements/1.1/"
   xmlns:cc="http://creativecommons.org/ns#"
   xmlns:rdf="http://www.w3.org/1999/02/22-rdf-syntax-ns#"
   xmlns:svg="http://www.w3.org/2000/svg"
   xmlns="http://www.w3.org/2000/svg"
   xmlns:xlink="http://www.w3.org/1999/xlink"
   xmlns:sodipodi="http://sodipodi.sourceforge.net/DTD/sodipodi-0.dtd"
   xmlns:inkscape="http://www.inkscape.org/namespaces/inkscape"
   width="96"
   height="96"
   id="svg5356"
   version="1.1"
   inkscape:version="0.91 r13725"
   sodipodi:docname="user-home.svg">
  <defs
     id="defs5358">
    <clipPath
       clipPathUnits="userSpaceOnUse"
       id="clipPath12225">
      <path
         id="path12227"
         d="m 310.5,158 c -1.50002,0 -1.5,1.46875 -1.5,1.46875 L 309,172 l -1.5,0 c -1.5,0 -1.5,1.28125 -1.5,1.28125 l 1.34375,35.4375 c 0.0382,0.40456 0.24888,0.69804 0.46875,0.90625 0.21986,0.2082 0.48146,0.37682 0.90625,0.375 l 54.5625,0 c 0.42451,0.001 0.65511,-0.16676 0.875,-0.375 0.2199,-0.20825 0.43064,-0.50187 0.46875,-0.90625 l 1.375,-35.5 c 0,0 -0.009,-1.21877 -1.375,-1.21875 l -1.625,0 0,-7.5 c 0,0 0,-1.5064 -1.5,-1.5 l -21.03125,0.0937 C 335.46875,163.09375 336,158 331,158 l -20.5,0 z"
         style="color:#000000;font-style:normal;font-variant:normal;font-weight:normal;font-stretch:normal;font-size:medium;line-height:normal;font-family:Sans;-inkscape-font-specification:Sans;text-indent:0;text-align:start;text-decoration:none;text-decoration-line:none;letter-spacing:normal;word-spacing:normal;text-transform:none;direction:ltr;block-progression:tb;writing-mode:lr-tb;baseline-shift:baseline;text-anchor:start;display:inline;overflow:visible;visibility:visible;fill:#000000;fill-opacity:1;stroke:none;stroke-width:2;marker:none;enable-background:accumulate"
         inkscape:connector-curvature="0" />
    </clipPath>
    <linearGradient
       id="linearGradient11342">
      <stop
         style="stop-color:#ffffff;stop-opacity:1;"
         offset="0"
         id="stop11344" />
      <stop
         style="stop-color:#ffffff;stop-opacity:0;"
         offset="1"
         id="stop11346" />
    </linearGradient>
    <clipPath
       clipPathUnits="userSpaceOnUse"
       id="clipPath12267">
      <path
         style="color:#000000;font-style:normal;font-variant:normal;font-weight:normal;font-stretch:normal;font-size:medium;line-height:normal;font-family:Sans;-inkscape-font-specification:Sans;text-indent:0;text-align:start;text-decoration:none;text-decoration-line:none;letter-spacing:normal;word-spacing:normal;text-transform:none;direction:ltr;block-progression:tb;writing-mode:lr-tb;baseline-shift:baseline;text-anchor:start;display:inline;overflow:visible;visibility:visible;fill:#000000;fill-opacity:1;stroke:none;stroke-width:1;marker:none;enable-background:accumulate"
         d="m 307.5,167.99972 c -0.35457,0 -0.64506,0.0626 -0.875,0.1875 -0.22994,0.12486 -0.36622,0.31678 -0.4375,0.4375 -0.082,0.13891 -0.12908,0.27141 -0.15625,0.375 -0.0272,0.10359 -0.0274,0.12696 -0.0312,0.21875 l 0,0.0312 0,0.0312 0,0.0312 1.34375,35.34375 0,0.0312 0,0.0312 0,0.0312 c 0.0473,0.36803 0.25881,0.67618 0.46875,0.875 0.0967,0.0916 0.21058,0.16825 0.375,0.25 0.16442,0.0817 0.34434,0.12566 0.53125,0.125 l 54.5625,0 c 0.1872,4.4e-4 0.3698,-0.0362 0.53125,-0.125 0.16145,-0.0888 0.25774,-0.16855 0.34375,-0.25 0.21008,-0.19895 0.42151,-0.50693 0.46875,-0.875 0.0108,-0.10912 0.008,-0.11455 0,-0.0312 l 0,-0.0312 1.375,-35.4375 c 0,0 0.0152,-0.32086 -0.15625,-0.625 -0.0644,-0.11425 -0.19054,-0.30572 -0.40625,-0.4375 -0.21571,-0.13178 -0.48648,-0.18751 -0.8125,-0.1875 l -57.125,0 z"
         id="path12269"
         inkscape:connector-curvature="0"
         sodipodi:nodetypes="ccccccccccccccccsccccccsccc" />
    </clipPath>
    <linearGradient
       id="linearGradient4968">
      <stop
         id="stop4970"
         offset="0"
         style="stop-color:#f1e6f4;stop-opacity:1;" />
      <stop
         style="stop-color:#c9bcce;stop-opacity:1;"
         offset="1"
         id="stop4972" />
    </linearGradient>
    <linearGradient
       id="linearGradient11359">
      <stop
         style="stop-color:#d5cbd7;stop-opacity:1;"
         offset="0"
         id="stop11361" />
      <stop
         style="stop-color:#d9bfdf;stop-opacity:1;"
         offset="1"
         id="stop11363" />
    </linearGradient>
    <clipPath
       clipPathUnits="userSpaceOnUse"
       id="clipPath4275">
      <path
         id="path4277"
         d="m 6,32.5 c -0.8333333,0 -1.1123629,0.341913 -1.3027344,0.722656 -0.1889125,0.377819 -0.1951978,0.765475 -0.1953125,0.771485 L 7.5,83.984375 7.5,84 c 0,0 0.00689,0.396601 0.1972656,0.777344 C 7.8876371,85.158087 8.1666667,85.5 9,85.5 l 78,0 c 0.833333,0 1.112363,-0.341913 1.302734,-0.722656 C 88.4931,84.396601 88.5,84 88.5,84 l 0,-0.02539 0.002,-0.02539 c 0.0015,-0.0148 2.993294,-49.908195 2.996094,-49.955078 -1.15e-4,-0.006 -0.0064,-0.393666 -0.195313,-0.771485 C 91.112363,32.841913 90.833333,32.5 90,32.5 l -84,0 z"
         style="color:#000000;font-style:normal;font-variant:normal;font-weight:normal;font-stretch:normal;font-size:medium;line-height:normal;font-family:Sans;-inkscape-font-specification:Sans;text-indent:0;text-align:start;text-decoration:none;text-decoration-line:none;letter-spacing:normal;word-spacing:normal;text-transform:none;direction:ltr;block-progression:tb;writing-mode:lr-tb;baseline-shift:baseline;text-anchor:start;display:inline;overflow:visible;visibility:visible;fill:url(#linearGradient4279);fill-opacity:1;stroke:none;stroke-width:1;marker:none;enable-background:accumulate"
         inkscape:connector-curvature="0" />
    </clipPath>
    <linearGradient
       inkscape:collect="always"
       xlink:href="#linearGradient4968"
       id="linearGradient4279"
       gradientUnits="userSpaceOnUse"
       gradientTransform="matrix(1.466657,0,0,1.466657,-444.79704,-215.8642)"
       x1="368"
       y1="148"
       x2="368"
       y2="212" />
    <clipPath
       clipPathUnits="userSpaceOnUse"
       id="clipPath4285">
      <path
         id="path4287"
         d="m 11,12.5 c -0.833333,0 -1.1123629,0.341913 -1.3027344,0.722656 C 9.50689,13.603399 9.5,14 9.5,14 l 0,27.5 77,0 0,-21.5 c 0,-0.833333 -0.341913,-1.112363 -0.722656,-1.302734 C 85.396601,18.5069 85,18.5 85,18.5 l -29,0 c -4.125,0 -6.300781,-1.599609 -8.300781,-3.099609 C 45.699219,13.900391 43.875,12.5 40,12.5 l -29,0 z"
         style="color:#000000;font-style:normal;font-variant:normal;font-weight:normal;font-stretch:normal;font-size:medium;line-height:normal;font-family:Sans;-inkscape-font-specification:Sans;text-indent:0;text-align:start;text-decoration:none;text-decoration-line:none;letter-spacing:normal;word-spacing:normal;text-transform:none;direction:ltr;block-progression:tb;writing-mode:lr-tb;baseline-shift:baseline;text-anchor:start;display:inline;overflow:visible;visibility:visible;fill:url(#linearGradient4289);fill-opacity:1;stroke:none;stroke-width:1;marker:none;enable-background:accumulate"
         inkscape:connector-curvature="0" />
    </clipPath>
    <linearGradient
       inkscape:collect="always"
       xlink:href="#linearGradient11359"
       id="linearGradient4289"
       gradientUnits="userSpaceOnUse"
       gradientTransform="matrix(1.466657,0,0,1.466657,-444.79704,-221.73124)"
       x1="336"
       y1="164"
       x2="336"
       y2="180" />
  </defs>
  <sodipodi:namedview
     id="base"
     pagecolor="#ffffff"
     bordercolor="#666666"
     borderopacity="1.0"
     inkscape:pageopacity="0.0"
     inkscape:pageshadow="2"
     inkscape:zoom="7.04"
     inkscape:cx="12.078691"
     inkscape:cy="51.172498"
     inkscape:current-layer="layer1"
     showgrid="false"
     showborder="true"
     inkscape:document-units="px"
     inkscape:grid-bbox="true"
     inkscape:window-width="1920"
     inkscape:window-height="1137"
     inkscape:window-x="0"
     inkscape:window-y="28"
     inkscape:window-maximized="1"
     inkscape:snap-nodes="true"
     inkscape:object-paths="true"
     inkscape:snap-intersection-paths="true"
     inkscape:object-nodes="true"
     inkscape:snap-smooth-nodes="true"
     objecttolerance="1"
     guidetolerance="1"
     gridtolerance="1">
    <inkscape:grid
       type="xygrid"
       id="grid5415"
       empspacing="4"
       visible="true"
       enabled="true"
       snapvisiblegridlinesonly="true" />
  </sodipodi:namedview>
  <metadata
     id="metadata5361">
    <rdf:RDF>
      <cc:Work
         rdf:about="">
        <dc:format>image/svg+xml</dc:format>
        <dc:type
           rdf:resource="http://purl.org/dc/dcmitype/StillImage" />
        <dc:title></dc:title>
      </cc:Work>
    </rdf:RDF>
  </metadata>
  <g
     id="layer1"
     inkscape:label="Background"
     inkscape:groupmode="layer"
     transform="translate(0,32)">
    <path
       style="fill:#2c5aa0"
       id="path4140"
       inkscape:connector-curvature="0"
       sodipodi:nodetypes="ccsccsccc"
       d="m 81.329637,45.737332 -0.06452,-59.411828 c 0,0 0.129088,-1.95006 -1.807167,-3.315103 -1.355377,-0.975029 -3.937047,-0.845025 -3.937047,-0.845025 l -56.280421,-0.130004 c 0,0 -2.194422,0.195006 -3.678881,1.430043 -1.742626,1.365043 -1.807166,3.120096 -1.807166,3.120096 l 0.129077,59.41183 67.44615,-0.260009 z" />
    <path
       sodipodi:type="star"
       style="opacity:1;fill:#ffcc00;fill-opacity:0.54545456;stroke:none;stroke-width:19.36700058;stroke-linejoin:round;stroke-miterlimit:4;stroke-dasharray:none;stroke-dashoffset:0;stroke-opacity:1"
       id="path4336"
       sodipodi:sides="6"
       sodipodi:cx="50"
       sodipodi:cy="-4.181819"
       sodipodi:r1="24.792934"
       sodipodi:r2="21.471312"
       sodipodi:arg1="0.52359878"
       sodipodi:arg2="1.0471976"
       inkscape:flatsided="true"
       inkscape:rounded="0"
       inkscape:randomized="0"
       d="M 71.471311,8.2146483 50,20.611115 28.528689,8.2146482 l 0,-24.7929342 L 50,-28.974753 71.471311,-16.578286 Z"
       transform="matrix(0.98307252,0.18321687,-0.18321687,0.98307252,0.2222397,-8.5214039)" />
    <path
       d="M 66.073585,5.0982695 50,14.378358 33.926415,5.0982694 l 0,-18.5601764 L 50,-22.741996 l 16.073585,9.280089 z"
       inkscape:randomized="0"
       inkscape:rounded="0"
       inkscape:flatsided="true"
       sodipodi:arg2="1.0471976"
       sodipodi:arg1="0.52359878"
       sodipodi:r2="16.073584"
       sodipodi:r1="18.560177"
       sodipodi:cy="-4.181819"
       sodipodi:cx="50"
       sodipodi:sides="6"
       id="path4338"
       style="opacity:1;fill:#ffcc00;fill-opacity:1;stroke:none;stroke-width:19.36700058;stroke-linejoin:round;stroke-miterlimit:4;stroke-dasharray:none;stroke-dashoffset:0;stroke-opacity:1"
       sodipodi:type="star"
       transform="matrix(0.98307252,0.18321687,-0.18321687,0.98307252,0.2222397,-8.5214039)" />
    <path
       style="fill:#3771c8"
       id="path4138"
       inkscape:connector-curvature="0"
       sodipodi:nodetypes="ccsccsccsccsc"
       d="M 1.8141736,4.0710509 13.108982,44.437292 c 0,0 0.645425,2.210069 2.129883,3.705114 1.936254,1.950061 4.066127,1.820057 4.066127,1.820057 l 56.47405,0 c 0,0 2.323502,0.130004 4.195216,-1.625052 1.419919,-1.365041 1.807166,-3.575109 1.807166,-3.575109 L 93.979822,3.8110425 c 0,0 1.419919,-3.83511832 0.451791,-6.4351977 -1.678089,-4.355134 -6.066923,-3.8351183 -6.066923,-3.8351183 l -80.6772142,0.065001 c 0,0 -3.5497922,-0.5200157 -5.8087537,3.1200961 -1.41991863,2.47007569 -0.064522,7.3452263 -0.064522,7.3452263 l 0,0 z" />
    <path
       inkscape:connector-curvature="0"
       id="path4409"
       d="M 47.999422,4.8679385 A 19.775751,19.775751 0 0 0 28.224722,24.643795 19.775751,19.775751 0 0 0 47.999422,44.419653 19.775751,19.775751 0 0 0 67.775279,24.643795 19.775751,19.775751 0 0 0 47.999422,4.8679385 Z m 0,5.4695735 a 6.6480189,6.6480189 0 0 1 0.664171,0.03355 6.6480189,6.6480189 0 0 1 0.657228,0.09951 6.6480189,6.6480189 0 0 1 0.643343,0.164307 6.6480189,6.6480189 0 0 1 0.62483,0.227947 6.6480189,6.6480189 0 0 1 0.598216,0.288116 6.6480189,6.6480189 0 0 1 0.566975,0.348285 6.6480189,6.6480189 0 0 1 0.528791,0.401511 6.6480189,6.6480189 0 0 1 0.485979,0.45358 6.6480189,6.6480189 0 0 1 0.438538,0.498707 6.6480189,6.6480189 0 0 1 0.386468,0.540362 6.6480189,6.6480189 0 0 1 0.330928,0.576232 6.6480189,6.6480189 0 0 1 0.27076,0.607473 6.6480189,6.6480189 0 0 1 0.210591,0.630615 6.6480189,6.6480189 0 0 1 0.144636,0.647972 6.6480189,6.6480189 0 0 1 0.081,0.659542 6.6480189,6.6480189 0 0 1 0.0162,0.470936 6.6480189,6.6480189 0 0 1 -0.03355,0.663014 6.6480189,6.6480189 0 0 1 -0.09951,0.657228 6.6480189,6.6480189 0 0 1 -0.164308,0.643342 6.6480189,6.6480189 0 0 1 -0.227946,0.62483 6.6480189,6.6480189 0 0 1 -0.288117,0.598216 6.6480189,6.6480189 0 0 1 -0.348284,0.566975 6.6480189,6.6480189 0 0 1 -0.401511,0.528791 6.6480189,6.6480189 0 0 1 -0.45358,0.485979 6.6480189,6.6480189 0 0 1 -0.498706,0.438537 6.6480189,6.6480189 0 0 1 -0.540363,0.386469 6.6480189,6.6480189 0 0 1 -0.576231,0.330929 6.6480189,6.6480189 0 0 1 -0.607474,0.271916 6.6480189,6.6480189 0 0 1 -0.630615,0.209434 6.6480189,6.6480189 0 0 1 -0.647971,0.144637 6.6480189,6.6480189 0 0 1 -0.659543,0.081 6.6480189,6.6480189 0 0 1 -0.470936,0.0162 6.6480189,6.6480189 0 0 1 -0.663014,-0.03356 6.6480189,6.6480189 0 0 1 -0.657227,-0.09951 6.6480189,6.6480189 0 0 1 -0.643344,-0.164307 6.6480189,6.6480189 0 0 1 -0.62483,-0.227948 6.6480189,6.6480189 0 0 1 -0.598216,-0.288116 6.6480189,6.6480189 0 0 1 -0.566975,-0.348284 6.6480189,6.6480189 0 0 1 -0.528791,-0.401511 6.6480189,6.6480189 0 0 1 -0.485979,-0.45358 6.6480189,6.6480189 0 0 1 -0.438537,-0.498707 6.6480189,6.6480189 0 0 1 -0.386469,-0.540362 6.6480189,6.6480189 0 0 1 -0.330928,-0.576231 6.6480189,6.6480189 0 0 1 -0.271917,-0.607474 6.6480189,6.6480189 0 0 1 -0.209434,-0.630615 6.6480189,6.6480189 0 0 1 -0.144636,-0.64797 6.6480189,6.6480189 0 0 1 -0.081,-0.659542 6.6480189,6.6480189 0 0 1 -0.0162,-0.46978 6.6480189,6.6480189 0 0 1 0.03356,-0.664171 6.6480189,6.6480189 0 0 1 0.09951,-0.657228 6.6480189,6.6480189 0 0 1 0.164308,-0.643343 6.6480189,6.6480189 0 0 1 0.227947,-0.62483 6.6480189,6.6480189 0 0 1 0.288116,-0.598216 6.6480189,6.6480189 0 0 1 0.348285,-0.566975 6.6480189,6.6480189 0 0 1 0.40151,-0.528791 6.6480189,6.6480189 0 0 1 0.45358,-0.485979 6.6480189,6.6480189 0 0 1 0.498707,-0.438538 6.6480189,6.6480189 0 0 1 0.540362,-0.386469 6.6480189,6.6480189 0 0 1 0.576231,-0.330928 6.6480189,6.6480189 0 0 1 0.607474,-0.27076 6.6480189,6.6480189 0 0 1 0.630615,-0.21059 6.6480189,6.6480189 0 0 1 0.647971,-0.144637 6.6480189,6.6480189 0 0 1 0.659543,-0.081 6.6480189,6.6480189 0 0 1 0.469779,-0.0162 z m 0,14.979711 a 11.781299,11.781299 0 0 1 1.176762,0.05785 11.781299,11.781299 0 0 1 1.164035,0.177035 11.781299,11.781299 0 0 1 1.140892,0.290431 11.781299,11.781299 0 0 1 1.106181,0.403824 11.781299,11.781299 0 0 1 1.061052,0.512592 11.781299,11.781299 0 0 1 1.004357,0.615573 11.781299,11.781299 0 0 1 0.937244,0.712769 11.781299,11.781299 0 0 1 0.860876,0.803022 11.781299,11.781299 0 0 1 0.777566,0.884018 11.781299,11.781299 0 0 1 0.684998,0.958072 11.781299,11.781299 0 0 1 0.586646,1.021712 11.781299,11.781299 0 0 1 0.480193,1.074938 11.781299,11.781299 0 0 1 0.371426,1.117751 11.781299,11.781299 0 0 1 0.258032,1.148992 11.781299,11.781299 0 0 1 0.142323,1.168663 11.781299,11.781299 0 0 1 0.02893,0.833106 l -11.78151,0 -11.780352,0 a 11.781299,11.781299 0 0 1 0.05901,-1.175605 11.781299,11.781299 0 0 1 0.175878,-1.164034 11.781299,11.781299 0 0 1 0.29043,-1.14205 11.781299,11.781299 0 0 1 0.403825,-1.10618 11.781299,11.781299 0 0 1 0.512592,-1.059896 11.781299,11.781299 0 0 1 0.615573,-1.004356 11.781299,11.781299 0 0 1 0.712769,-0.937244 11.781299,11.781299 0 0 1 0.803022,-0.862034 11.781299,11.781299 0 0 1 0.884017,-0.776408 11.781299,11.781299 0 0 1 0.958072,-0.684999 11.781299,11.781299 0 0 1 1.021713,-0.586646 11.781299,11.781299 0 0 1 1.074938,-0.480193 11.781299,11.781299 0 0 1 1.117751,-0.371426 11.781299,11.781299 0 0 1 1.148992,-0.258032 11.781299,11.781299 0 0 1 1.168663,-0.142322 11.781299,11.781299 0 0 1 0.833106,-0.02893 z"
       style="opacity:0.514;fill:#000000;fill-opacity:1;stroke:none;stroke-width:19.36700058;stroke-linejoin:round;stroke-miterlimit:4;stroke-dasharray:none;stroke-dashoffset:0;stroke-opacity:1" />
    <path
       style="opacity:1;fill:#ffffff;fill-opacity:1;stroke:none;stroke-width:19.36700058;stroke-linejoin:round;stroke-miterlimit:4;stroke-dasharray:none;stroke-dashoffset:0;stroke-opacity:1"
       d="m 47.999422,3.18437 a 19.775751,19.775751 0 0 0 -19.7747,19.775856 19.775751,19.775751 0 0 0 19.7747,19.775858 A 19.775751,19.775751 0 0 0 67.775279,22.960226 19.775751,19.775751 0 0 0 47.999422,3.18437 Z m 0,5.4695735 a 6.6480189,6.6480189 0 0 1 0.664171,0.033555 6.6480189,6.6480189 0 0 1 0.657228,0.09951 6.6480189,6.6480189 0 0 1 0.643343,0.1643072 6.6480189,6.6480189 0 0 1 0.62483,0.2279467 6.6480189,6.6480189 0 0 1 0.598216,0.2881164 6.6480189,6.6480189 0 0 1 0.566975,0.3482843 6.6480189,6.6480189 0 0 1 0.528791,0.4015109 6.6480189,6.6480189 0 0 1 0.485979,0.45358 6.6480189,6.6480189 0 0 1 0.438538,0.498707 6.6480189,6.6480189 0 0 1 0.386468,0.540362 6.6480189,6.6480189 0 0 1 0.330928,0.576232 6.6480189,6.6480189 0 0 1 0.27076,0.607473 6.6480189,6.6480189 0 0 1 0.210591,0.630615 6.6480189,6.6480189 0 0 1 0.144636,0.647972 6.6480189,6.6480189 0 0 1 0.081,0.659542 6.6480189,6.6480189 0 0 1 0.0162,0.470936 6.6480189,6.6480189 0 0 1 -0.03355,0.663014 6.6480189,6.6480189 0 0 1 -0.09951,0.657228 6.6480189,6.6480189 0 0 1 -0.164308,0.643342 6.6480189,6.6480189 0 0 1 -0.227946,0.62483 6.6480189,6.6480189 0 0 1 -0.288117,0.598216 6.6480189,6.6480189 0 0 1 -0.348284,0.566975 6.6480189,6.6480189 0 0 1 -0.401511,0.528791 6.6480189,6.6480189 0 0 1 -0.45358,0.485979 6.6480189,6.6480189 0 0 1 -0.498706,0.438537 6.6480189,6.6480189 0 0 1 -0.540363,0.386469 6.6480189,6.6480189 0 0 1 -0.576231,0.330929 6.6480189,6.6480189 0 0 1 -0.607474,0.271916 6.6480189,6.6480189 0 0 1 -0.630615,0.209434 6.6480189,6.6480189 0 0 1 -0.647971,0.144637 6.6480189,6.6480189 0 0 1 -0.659543,0.081 6.6480189,6.6480189 0 0 1 -0.470936,0.0162 6.6480189,6.6480189 0 0 1 -0.663014,-0.03356 6.6480189,6.6480189 0 0 1 -0.657227,-0.09951 6.6480189,6.6480189 0 0 1 -0.643344,-0.164307 6.6480189,6.6480189 0 0 1 -0.62483,-0.227948 6.6480189,6.6480189 0 0 1 -0.598216,-0.288116 6.6480189,6.6480189 0 0 1 -0.566975,-0.348284 6.6480189,6.6480189 0 0 1 -0.528791,-0.401511 6.6480189,6.6480189 0 0 1 -0.485979,-0.45358 6.6480189,6.6480189 0 0 1 -0.438537,-0.498707 6.6480189,6.6480189 0 0 1 -0.386469,-0.540362 6.6480189,6.6480189 0 0 1 -0.330928,-0.576231 6.6480189,6.6480189 0 0 1 -0.271917,-0.607474 6.6480189,6.6480189 0 0 1 -0.209434,-0.630615 6.6480189,6.6480189 0 0 1 -0.144636,-0.64797 6.6480189,6.6480189 0 0 1 -0.081,-0.659542 6.6480189,6.6480189 0 0 1 -0.0162,-0.46978 6.6480189,6.6480189 0 0 1 0.03356,-0.664171 6.6480189,6.6480189 0 0 1 0.09951,-0.657228 6.6480189,6.6480189 0 0 1 0.164308,-0.643343 6.6480189,6.6480189 0 0 1 0.227947,-0.62483 6.6480189,6.6480189 0 0 1 0.288116,-0.598216 6.6480189,6.6480189 0 0 1 0.348285,-0.566975 6.6480189,6.6480189 0 0 1 0.40151,-0.528791 6.6480189,6.6480189 0 0 1 0.45358,-0.485979 6.6480189,6.6480189 0 0 1 0.498707,-0.438538 6.6480189,6.6480189 0 0 1 0.540362,-0.3864681 6.6480189,6.6480189 0 0 1 0.576231,-0.3309284 6.6480189,6.6480189 0 0 1 0.607474,-0.2707599 6.6480189,6.6480189 0 0 1 0.630615,-0.2105903 6.6480189,6.6480189 0 0 1 0.647971,-0.1446367 6.6480189,6.6480189 0 0 1 0.659543,-0.080997 6.6480189,6.6480189 0 0 1 0.469779,-0.016199 z m 0,14.9797105 a 11.781299,11.781299 0 0 1 1.176762,0.05785 11.781299,11.781299 0 0 1 1.164035,0.177035 11.781299,11.781299 0 0 1 1.140892,0.290431 11.781299,11.781299 0 0 1 1.106181,0.403824 11.781299,11.781299 0 0 1 1.061052,0.512592 11.781299,11.781299 0 0 1 1.004357,0.615573 11.781299,11.781299 0 0 1 0.937244,0.712769 11.781299,11.781299 0 0 1 0.860876,0.803022 11.781299,11.781299 0 0 1 0.777566,0.884018 11.781299,11.781299 0 0 1 0.684998,0.958072 11.781299,11.781299 0 0 1 0.586646,1.021712 11.781299,11.781299 0 0 1 0.480193,1.074938 11.781299,11.781299 0 0 1 0.371426,1.117751 11.781299,11.781299 0 0 1 0.258032,1.148992 11.781299,11.781299 0 0 1 0.142323,1.168663 11.781299,11.781299 0 0 1 0.02893,0.833106 l -11.78151,0 -11.780352,0 a 11.781299,11.781299 0 0 1 0.05901,-1.175605 11.781299,11.781299 0 0 1 0.175878,-1.164034 11.781299,11.781299 0 0 1 0.29043,-1.14205 11.781299,11.781299 0 0 1 0.403825,-1.10618 11.781299,11.781299 0 0 1 0.512592,-1.059896 11.781299,11.781299 0 0 1 0.615573,-1.004356 11.781299,11.781299 0 0 1 0.712769,-0.937244 11.781299,11.781299 0 0 1 0.803022,-0.862034 11.781299,11.781299 0 0 1 0.884017,-0.776408 11.781299,11.781299 0 0 1 0.958072,-0.684999 11.781299,11.781299 0 0 1 1.021713,-0.586646 11.781299,11.781299 0 0 1 1.074938,-0.480193 11.781299,11.781299 0 0 1 1.117751,-0.371426 11.781299,11.781299 0 0 1 1.148992,-0.258032 11.781299,11.781299 0 0 1 1.168663,-0.142322 11.781299,11.781299 0 0 1 0.833106,-0.02893 z"
       id="path4344"
       inkscape:connector-curvature="0" />
  </g>
  <g
     inkscape:groupmode="layer"
     id="layer2"
     inkscape:label="Symbol"
     transform="translate(0,32)" />
</svg>
