<?xml version="1.0" encoding="UTF-8" standalone="no"?>
<!-- Created with Inkscape (http://www.inkscape.org/) -->

<svg
   xmlns:dc="http://purl.org/dc/elements/1.1/"
   xmlns:cc="http://creativecommons.org/ns#"
   xmlns:rdf="http://www.w3.org/1999/02/22-rdf-syntax-ns#"
   xmlns:svg="http://www.w3.org/2000/svg"
   xmlns="http://www.w3.org/2000/svg"
   xmlns:sodipodi="http://sodipodi.sourceforge.net/DTD/sodipodi-0.dtd"
   xmlns:inkscape="http://www.inkscape.org/namespaces/inkscape"
   width="96mm"
   height="96mm"
   viewBox="0 0 340.15748 340.15748"
   id="svg2"
   version="1.1"
   inkscape:version="0.91 r13725"
   sodipodi:docname="chromium-browser.svg">
  <defs
     id="defs4">
    <inkscape:path-effect
       effect="spiro"
       id="path-effect4793"
       is_visible="true" />
    <inkscape:path-effect
       effect="spiro"
       id="path-effect4797"
       is_visible="true" />
    <inkscape:path-effect
       effect="spiro"
       id="path-effect4809"
       is_visible="true" />
    <inkscape:path-effect
       effect="spiro"
       id="path-effect4789"
       is_visible="true" />
    <inkscape:path-effect
       effect="spiro"
       id="path-effect4777"
       is_visible="true" />
    <inkscape:path-effect
       effect="spiro"
       id="path-effect4785"
       is_visible="true" />
    <inkscape:path-effect
       effect="spiro"
       id="path-effect4781"
       is_visible="true" />
    <inkscape:path-effect
       effect="spiro"
       id="path-effect4809-1"
       is_visible="true" />
    <inkscape:path-effect
       effect="spiro"
       id="path-effect4797-7"
       is_visible="true" />
    <inkscape:path-effect
       effect="spiro"
       id="path-effect4793-7"
       is_visible="true" />
    <inkscape:path-effect
       effect="spiro"
       id="path-effect4789-9"
       is_visible="true" />
    <inkscape:path-effect
       effect="spiro"
       id="path-effect4905"
       is_visible="true" />
  </defs>
  <sodipodi:namedview
     id="base"
     pagecolor="#ffffff"
     bordercolor="#666666"
     borderopacity="1.0"
     inkscape:pageopacity="0.0"
     inkscape:pageshadow="2"
     inkscape:zoom="0.5"
     inkscape:cx="-16.26478"
     inkscape:cy="92.498853"
     inkscape:document-units="px"
     inkscape:current-layer="layer1"
     showgrid="false"
     inkscape:window-width="1920"
     inkscape:window-height="1138"
     inkscape:window-x="0"
     inkscape:window-y="30"
     inkscape:window-maximized="1" />
  <metadata
     id="metadata7">
    <rdf:RDF>
      <cc:Work
         rdf:about="">
        <dc:format>image/svg+xml</dc:format>
        <dc:type
           rdf:resource="http://purl.org/dc/dcmitype/StillImage" />
        <dc:title />
      </cc:Work>
    </rdf:RDF>
  </metadata>
  <g
     inkscape:label="1. réteg"
     inkscape:groupmode="layer"
     id="layer1"
     transform="translate(0,-712.20472)">
    <ellipse
       style="opacity:1;fill:#2a7fff;fill-opacity:1;fill-rule:evenodd;stroke:none;stroke-width:20;stroke-miterlimit:4;stroke-dasharray:none;stroke-opacity:1"
       id="path4811"
       cx="165.78619"
       cy="874.34967"
       rx="141.2775"
       ry="132.35965" />
    <path
       style="opacity:0.53299997;fill:#000000;fill-opacity:1;fill-rule:evenodd;stroke:#000000;stroke-width:0.32542324px;stroke-linecap:butt;stroke-linejoin:miter;stroke-opacity:1"
       d="m 132.50822,810.42175 c -0.1943,2.47227 0.6709,5.01018 2.33488,6.84895 1.19906,1.32501 2.79515,2.28606 4.52718,2.72594 1.73202,0.43988 3.59326,0.35688 5.27926,-0.23542 2.18675,-0.35145 4.40067,-0.53377 6.61546,-0.5448 2.00342,-0.01 4.00752,0.12016 5.99283,0.38914 1.6378,0.0991 3.27495,0.20893 4.9113,0.32965 1.24312,0.0917 2.50037,0.19253 3.68283,0.58689 1.18247,0.39437 2.30068,1.1175 2.92456,2.19663 0.55848,0.96599 0.67553,2.14206 0.50235,3.24435 -0.17317,1.10229 -0.6177,2.14379 -1.12499,3.13762 -0.87153,1.70741 -1.9383,3.31061 -3.11315,4.82539 -1.67088,2.15433 -3.58139,4.15019 -5.8402,5.67687 -2.33859,1.5806 -4.99006,2.62138 -7.54638,3.81826 -4.71828,2.20912 -9.17072,4.98535 -13.23092,8.24987 -4.76266,-7.05257 -7.5899,-15.39835 -8.09422,-23.89348 -0.3475,-5.85351 0.39537,-11.76996 2.17921,-17.35586 z"
       id="path4903"
       inkscape:path-effect="#path-effect4905"
       inkscape:original-d="m 132.50822,810.42175 c 0,0 -0.90764,4.89952 2.33488,6.84895 2.89042,1.73775 9.80644,2.49052 9.80644,2.49052 0,0 4.40293,-0.52563 6.61546,-0.5448 2.00175,-0.0173 5.99283,0.38914 5.99283,0.38914 0,0 2.31431,-0.0396 4.9113,0.32965 2.59699,0.36931 5.47666,1.1476 6.60739,2.78352 1.21532,1.75829 0.0803,4.36344 -0.62264,6.38197 -0.62951,1.80768 -3.11315,4.82539 -3.11315,4.82539 0,0 -2.85574,3.7327 -5.8402,5.67687 -2.98445,1.94422 -5.16366,2.25551 -7.54638,3.81826 -4.88559,3.20431 -13.23092,8.24987 -13.23092,8.24987 0,0 -6.70757,-16.518 -8.09422,-23.89348 -1.40566,-7.47668 2.17921,-17.35586 2.17921,-17.35586 z"
       inkscape:connector-curvature="0"
       sodipodi:nodetypes="cscscssscsscsc" />
    <path
       style="opacity:0.58800001;fill:#000000;fill-opacity:1;fill-rule:evenodd;stroke:none;stroke-width:1px;stroke-linecap:butt;stroke-linejoin:miter;stroke-opacity:1"
       d="m 74.82286,795.92288 c -3.943131,-2.86039 -7.356883,-6.44809 -10.017928,-10.5284 -3.307085,-5.07092 -5.441349,-10.90164 -6.189422,-16.90925 -5.991247,6.58855 -10.420719,14.58804 -12.825509,23.16248 -2.407234,8.58315 -2.781891,17.72923 -1.08474,26.48051 3.853603,-5.03202 8.422897,-9.5151 13.527396,-13.27216 5.075054,-3.73539 10.678056,-6.75239 16.590203,-8.93318 z"
       id="path4787-8"
       inkscape:path-effect="#path-effect4789-9"
       inkscape:original-d="m 74.82286,795.92288 c 0,0 -7.462268,-6.41307 -10.017928,-10.5284 -3.166486,-5.09894 -6.189422,-16.90925 -6.189422,-16.90925 0,0 -10.443283,14.66464 -12.825509,23.16248 -2.384598,8.50632 -1.08474,26.48051 -1.08474,26.48051 0,0 8.441409,-9.52552 13.527396,-13.27216 5.056841,-3.72516 16.590203,-8.93318 16.590203,-8.93318 z"
       inkscape:connector-curvature="0"
       sodipodi:nodetypes="cscscsc" />
    <path
       style="opacity:0.58800001;fill:#000000;fill-opacity:1;fill-rule:evenodd;stroke:none;stroke-width:1px;stroke-linecap:butt;stroke-linejoin:miter;stroke-opacity:1"
       d="m 153.18686,782.27738 c -12.58733,8.16129 -21.13819,22.25726 -22.56086,37.19123 -1.17771,12.36258 2.46055,25.1214 9.98147,35.00352 1.29854,2.90187 1.86764,6.12678 1.64079,9.29783 -0.17842,2.494 -0.84541,4.95213 -1.9521,7.19425 -5.59125,-2.64994 -11.95178,-3.65119 -18.08674,-2.84713 -6.13496,0.80405 -12.02266,3.41056 -16.74219,7.41185 -5.39205,4.57146 -9.220672,10.95421 -10.715241,17.86352 -1.494568,6.90932 -0.646121,14.30378 2.374565,20.69501 l -57.154164,6.83661 c -1.231711,-4.47726 -2.326256,-8.99225 -3.281584,-13.53651 -0.962118,-4.57656 -1.783032,-9.1828 -2.46118,-13.80997 -0.52577,-4.31016 -0.971216,-8.63011 -1.336028,-12.95687 -0.603151,-7.1535 -0.984827,-14.36741 -0.16803,-21.49968 1.325888,-11.57765 5.86978,-22.76999 12.98958,-31.99541 5.678797,-10.16104 14.401936,-18.59502 24.748574,-23.92818 11.223695,-5.78524 24.313154,-7.87761 36.781028,-5.87949 1.28612,-0.37485 2.67912,-0.37485 3.96524,0 1.06819,0.31133 2.06085,0.87857 2.87139,1.64079 4.17523,-5.24586 9.54683,-9.53372 15.5875,-12.44266 7.26509,-3.49857 15.4886,-4.98071 23.51798,-4.23871 z"
       id="path4791-2"
       inkscape:path-effect="#path-effect4793-7"
       inkscape:original-d="m 153.18686,782.27738 c 0,0 -20.82563,23.18777 -22.56086,37.19123 -1.49202,12.04086 9.98147,35.00352 9.98147,35.00352 0,0 1.65759,6.15067 1.64079,9.29783 -0.0159,2.96771 -1.9521,7.19425 -1.9521,7.19425 0,0 -25.78762,-3.64195 -34.82893,4.56472 -9.671377,8.77854 -8.340676,38.55853 -8.340676,38.55853 l -57.154164,6.83661 c 0,0 -2.73076,-8.92642 -3.281584,-13.53651 -0.53531,-4.48027 -2.46118,-13.80997 -2.46118,-13.80997 0,0 -0.765345,-5.76654 -1.336028,-12.95687 -0.570677,-7.19028 -0.946691,-15.80448 -0.16803,-21.49968 1.532651,-11.21005 12.98958,-31.99541 12.98958,-31.99541 0,0 14.484543,-18.7977 24.748574,-23.92818 11.105869,-5.55127 36.781028,-5.87949 36.781028,-5.87949 0,0 2.68777,-0.33926 3.96524,0 1.06545,0.28294 2.87139,1.64079 2.87139,1.64079 0,0 9.51548,-9.73536 15.5875,-12.44266 6.83663,-3.04821 23.51798,-4.23871 23.51798,-4.23871 z"
       inkscape:connector-curvature="0"
       sodipodi:nodetypes="cscscsccscsscscscsc" />
    <path
       style="opacity:0.55899999;fill:#000000;fill-opacity:1;fill-rule:evenodd;stroke:none;stroke-width:1px;stroke-linecap:butt;stroke-linejoin:miter;stroke-opacity:1"
       d="m 121.57964,868.08429 c -10.26948,1.82036 -19.80119,7.52946 -26.252637,15.72426 -6.716386,8.53133 -10.015628,19.67873 -9.024348,30.49126 7.353695,0.98812 14.525195,3.31654 21.056805,6.83666 7.59722,4.09441 14.43205,9.8234 22.69759,12.3059 6.50951,1.95509 13.45032,1.74847 20.2364,1.36731 6.57194,-0.36913 13.36382,-0.95024 19.14254,-4.10192 4.07009,-2.21981 7.38589,-5.58604 11.21206,-8.20398 3.86781,-2.64643 8.26407,-4.51717 12.85286,-5.46929 1.17735,0.64425 2.58612,0.85432 3.9002,0.58159 1.31409,-0.27274 2.5229,-1.02609 3.34662,-2.08566 0.63653,-0.81879 1.04364,-1.81403 1.16343,-2.8442 0.11978,-1.03016 -0.0481,-2.09226 -0.47977,-3.03526 -4.34771,-4.61283 -10.08973,-7.89399 -16.27116,-9.29782 -6.87209,-1.56068 -14.25418,-0.77846 -20.6466,2.18775 -6.75702,4.77149 -15.66132,6.36705 -23.65472,4.23869 -6.72057,-1.78945 -12.59226,-6.01679 -17.36502,-11.07535 -3.16645,-3.35605 -5.98412,-7.25222 -6.97336,-11.75898 -0.6231,-2.83873 -0.48386,-5.84108 0.39932,-8.60995 0.88317,-2.76888 2.50808,-5.29735 4.65979,-7.25101 z"
       id="path4795-6"
       inkscape:path-effect="#path-effect4797-7"
       inkscape:original-d="m 121.57964,868.08429 c 0,0 -20.30819,7.78346 -26.252637,15.72426 -6.283678,8.39383 -9.024348,30.49126 -9.024348,30.49126 0,0 16.071665,4.46986 21.056805,6.83666 7.77457,3.69113 14.43155,9.90985 22.69759,12.3059 6.49354,1.88229 13.49298,1.85241 20.2364,1.36731 6.50888,-0.46819 13.18771,-1.43273 19.14254,-4.10192 4.22588,-1.89425 7.18632,-5.91493 11.21206,-8.20398 4.04752,-2.30138 12.85286,-5.46929 12.85286,-5.46929 0,0 5.58155,0.3162 7.24682,-1.50407 1.33178,-1.45575 0.68366,-5.87946 0.68366,-5.87946 0,0 -10.15748,-8.01522 -16.27116,-9.29782 -6.77328,-1.42097 -20.6466,2.18775 -20.6466,2.18775 0,0 -16.36524,5.91359 -23.65472,4.23869 -6.69107,-1.53742 -17.36502,-11.07535 -17.36502,-11.07535 0,0 -7.14278,-6.96765 -6.97336,-11.75898 0.15347,-4.34055 5.05911,-15.86096 5.05911,-15.86096 z"
       inkscape:connector-curvature="0"
       sodipodi:nodetypes="cscssssscscscscsc" />
    <path
       style="opacity:0.49000005;fill:#000000;fill-opacity:1;fill-rule:evenodd;stroke:none;stroke-width:1px;stroke-linecap:butt;stroke-linejoin:miter;stroke-opacity:1"
       d="m 93.782623,910.01697 33.362717,19.68942 c 14.07091,15.83801 34.88048,25.4815 56.06031,25.97924 20.88975,0.49093 41.84337,-7.91078 56.60724,-22.69763 l 10.1182,-33.3627 c 0.92001,1.44679 1.74286,2.95535 2.46118,4.51215 0.75603,1.63853 1.39623,3.33048 1.91425,5.05907 2.2881,-9.49708 3.61875,-19.22457 3.96524,-28.98725 0.35711,-10.06198 -0.33144,-20.16075 -2.05099,-30.08114 3.0852,2.73514 5.76656,5.92504 7.93049,9.43457 2.01976,3.27571 3.58873,6.82894 4.64891,10.52836 1.00873,-12.72966 -0.63139,-25.66321 -4.78564,-37.73814 -5.01077,-14.56454 -13.69354,-27.84965 -25.02204,-38.28509 5.20697,1.51843 10.22537,3.68233 14.90384,6.42643 4.61125,2.70467 8.89177,5.9726 12.71611,9.708 -4.16566,-8.36557 -9.47129,-16.16255 -15.72422,-23.10779 -7.49596,-8.32589 -16.35464,-15.42211 -26.11591,-20.92007 13.38099,3.09764 26.14255,8.84736 37.32797,16.8181 12.614,8.98875 23.20343,20.80185 30.7648,34.31985 0.36481,-4.73369 -0.1478,-9.53357 -1.50406,-14.08345 -1.67606,-5.62272 -4.64601,-10.85549 -8.61415,-15.1773 5.46466,5.39489 10.25376,11.47336 14.22018,18.04868 3.6318,6.02061 6.57406,12.4568 8.75087,19.14255 2.0332,7.95839 3.22694,16.13096 3.55505,24.3384 0.35691,8.92793 -0.89629,17.84421 -3.00811,26.52612 l -4.92237,20.23635 c 4.72664,-3.30789 8.65158,-7.75299 11.34879,-12.85283 2.79284,-5.28065 4.26262,-11.2546 4.23871,-17.22827 2.20286,16.28696 -0.0914,33.15912 -6.56316,48.26652 -3.37697,7.88302 -7.85679,15.26875 -13.00391,22.12828 -3.12603,4.16604 -6.37072,8.24263 -9.42021,12.46502 l -10.66513,14.76715 c 4.97723,-2.3439 9.67098,-5.28902 13.94671,-8.75093 5.38656,-4.36132 10.10669,-9.54418 13.9467,-15.31397 -1.44902,8.73074 -5.21211,17.0667 -10.80186,23.9282 -4.87182,5.98023 -11.02855,10.77876 -17.36502,15.17728 -6.79171,4.71452 -13.85979,9.03572 -21.19353,12.85283 -9.5854,4.98907 -19.62078,9.11322 -29.94441,12.30592 5.65741,0.7368 11.46311,0.3154 16.95483,-1.2306 6.03685,-1.6995 11.68645,-4.75966 16.40789,-8.88757 -3.94927,5.5932 -9.24609,10.22787 -15.31403,13.39977 -5.81362,3.0389 -12.22755,4.7146 -18.59562,6.2897 -23.49918,5.8124 -47.68419,10.6143 -71.78453,8.3407 -23.63781,-2.2299 -46.5771,-11.4153 -65.221389,-26.11594 C 76.377219,987.59577 65.728605,977.45644 56.864861,965.94057 46.867046,952.9513 39.14888,938.21238 34.167273,922.59633 l 59.61535,-12.57936 z"
       id="path4807-3"
       inkscape:path-effect="#path-effect4809-1"
       inkscape:original-d="m 93.782623,910.01697 33.362717,19.68942 c 0,0 34.86471,25.58997 56.06031,25.97924 20.23812,0.3716 56.60724,-22.69763 56.60724,-22.69763 l 10.1182,-33.3627 c 0,0 1.74613,2.95525 2.46118,4.51215 0.75252,1.63852 1.91425,5.05907 1.91425,5.05907 0,0 3.63435,-19.24045 3.96524,-28.98725 0.34101,-10.04456 -2.05099,-30.08114 -2.05099,-30.08114 0,0 5.75725,5.94814 7.93049,9.43457 2.02939,3.25564 4.64891,10.52836 4.64891,10.52836 0,0 -0.40777,-25.83773 -4.78564,-37.73814 -5.26361,-14.30812 -25.02204,-38.28509 -25.02204,-38.28509 0,0 10.2348,3.69341 14.90384,6.42643 4.60228,2.69393 12.71611,9.708 12.71611,9.708 0,0 -9.39773,-16.26836 -15.72422,-23.10779 -7.574,-8.18807 -26.11591,-20.92007 -26.11591,-20.92007 0,0 26.31381,8.75984 37.32797,16.8181 12.39925,9.07163 30.7648,34.31985 30.7648,34.31985 0,0 -0.0579,-9.5892 -1.50406,-14.08345 -1.78184,-5.53754 -8.61415,-15.1773 -8.61415,-15.1773 0,0 10.22961,11.51121 14.22018,18.04868 3.65544,5.98846 8.75087,19.14255 8.75087,19.14255 0,0 3.42338,16.14056 3.55505,24.3384 0.14291,8.89752 -3.00811,26.52612 -3.00811,26.52612 l -4.92237,20.23635 c 0,0 8.69796,-7.78938 11.34879,-12.85283 2.74296,-5.23947 4.23871,-17.22827 4.23871,-17.22827 0,0 -0.91729,33.04284 -6.56316,48.26652 -2.38914,6.44219 -7.99517,15.09051 -13.00391,22.12828 -5.00875,7.03776 -9.42021,12.46502 -9.42021,12.46502 l -10.66513,14.76715 c 0,0 9.73575,-5.23111 13.94671,-8.75093 5.29748,-4.42789 13.9467,-15.31397 13.9467,-15.31397 0,0 -5.5878,16.89992 -10.80186,23.9282 -4.58041,6.174 -17.36502,15.17728 -17.36502,15.17728 0,0 -13.81809,9.12925 -21.19353,12.85283 -9.63336,4.86356 -29.94441,12.30592 -29.94441,12.30592 0,0 11.51603,0.3596 16.95483,-1.2306 5.97019,-1.7455 16.40789,-8.88757 16.40789,-8.88757 0,0 -9.4361,10.01477 -15.31403,13.39977 -5.67046,3.2655 -18.59562,6.2897 -18.59562,6.2897 0,0 -47.90684,11.5255 -71.78453,8.3407 -23.21301,-3.0962 -65.221389,-26.11594 -65.221389,-26.11594 0,0 -22.733025,-18.38754 -31.44846,-29.94439 -9.819945,-13.02143 -22.697588,-43.34424 -22.697588,-43.34424 z"
       inkscape:connector-curvature="0"
       sodipodi:nodetypes="ccsccscscscscscscscscscsccscssccscscscscscscscc" />
    <path
       style="fill:#532100;fill-opacity:1;fill-rule:evenodd;stroke:none;stroke-width:1px;stroke-linecap:butt;stroke-linejoin:miter;stroke-opacity:1"
       d="m 159.4373,833.29476 c 0.55053,-0.96302 0.7929,-2.09914 0.6833,-3.20299 -0.14365,-1.44683 -0.90259,-2.82239 -2.04992,-3.71546 -0.19745,-0.8268 -0.41255,-1.64939 -0.6451,-2.46702 -0.38189,-1.34269 -0.83297,-2.71255 -1.74645,-3.76812 -1.04687,-1.20971 -2.67395,-1.89308 -4.27065,-1.79368 2.69744,-0.35469 5.45614,-0.23853 8.11422,0.34165 0.72154,0.15749 1.44016,0.35046 2.10876,0.66415 0.6686,0.31369 1.28882,0.75442 1.73483,1.34306 0.5917,0.78091 0.84491,1.80958 0.68331,2.77592 -0.16782,1.84591 -0.66172,3.66171 -1.45202,5.33831 -0.78361,1.66241 -1.85821,3.18717 -3.16028,4.48418 z"
       id="path4779"
       inkscape:path-effect="#path-effect4781"
       inkscape:original-d="m 159.4373,833.29476 c 0,0 0.59774,-2.11466 0.6833,-3.20299 0.0838,-1.06589 -2.04992,-3.71546 -2.04992,-3.71546 0,0 -0.23077,-1.12509 -0.6451,-2.46702 -0.41433,-1.34193 -1.01222,-2.90072 -1.74645,-3.76812 -1.08964,-1.28727 -4.27065,-1.79368 -4.27065,-1.79368 0,0 5.49924,-0.35867 8.11422,0.34165 1.39618,0.37392 3.41131,1.3123 3.84359,2.00721 0.50334,0.80915 0.68331,2.77592 0.68331,2.77592 0,0 -0.66699,3.66967 -1.45202,5.33831 -0.77847,1.65466 -3.16028,4.48418 -3.16028,4.48418 z"
       inkscape:connector-curvature="0"
       sodipodi:nodetypes="cscsscsscsc" />
    <path
       style="fill:#ffffff;fill-opacity:1;fill-rule:evenodd;stroke:none;stroke-width:1px;stroke-linecap:butt;stroke-linejoin:miter;stroke-opacity:1"
       d="m 159.86435,826.20549 -19.13249,8.11422 c -2.60052,-1.62193 -5.8643,-2.14224 -8.84023,-1.40931 -3.43545,0.8461 -6.41542,3.37012 -7.81529,6.61951 0.30167,1.18359 0.70211,2.342 1.19579,3.45922 1.03776,2.34853 2.49044,4.51301 4.27064,6.36326 l 1.03055,2.87371 c 3.55795,-2.68985 7.2491,-5.20353 11.05538,-7.52873 3.67104,-2.24259 7.44917,-4.30986 11.31721,-6.19242 1.25411,-0.78401 2.45373,-1.65517 3.58734,-2.60511 1.0889,-0.91248 2.1169,-1.89764 3.07487,-2.94674 0.38977,-1.11095 0.6067,-2.28236 0.6406,-3.45922 0.0319,-1.10702 -0.098,-2.21857 -0.38437,-3.28839 z"
       id="path4783"
       inkscape:path-effect="#path-effect4785"
       inkscape:original-d="m 159.86435,826.20549 -19.13249,8.11422 c 0,0 -5.74533,-2.44135 -8.84023,-1.40931 -2.80301,0.9347 -7.81529,6.61951 -7.81529,6.61951 0,0 0.65202,2.36707 1.19579,3.45922 1.13854,2.28674 4.27064,6.36326 4.27064,6.36326 l 1.03055,2.87371 c 0,0 7.49141,-5.29656 11.05538,-7.52873 3.60959,-2.26071 11.31721,-6.19242 11.31721,-6.19242 0,0 2.45335,-1.65747 3.58734,-2.60511 1.08935,-0.9103 3.07487,-2.94674 3.07487,-2.94674 0,0 0.60146,-2.28719 0.6406,-3.45922 0.0368,-1.10298 -0.38437,-3.28839 -0.38437,-3.28839 z"
       inkscape:connector-curvature="0"
       sodipodi:nodetypes="ccscsccscscsc" />
    <path
       style="fill:#df5900;fill-opacity:1;fill-rule:evenodd;stroke:none;stroke-width:1px;stroke-linecap:butt;stroke-linejoin:miter;stroke-opacity:1"
       d="m 122.31636,807.1187 c 1.61186,3.43943 4.27488,6.37757 7.53979,8.31874 2.83753,1.68707 6.11825,2.62107 9.41888,2.68148 l 9.38653,-0.49918 c 2.21809,0.17499 4.40872,0.69392 6.4696,1.53257 0.9606,0.3909 1.8931,0.85081 2.78795,1.37502 1.04061,0.82782 1.74545,2.06602 1.926,3.38343 0.20745,1.5137 -0.28947,3.10932 -1.31969,4.23757 -1.03286,1.21842 -2.25649,2.27479 -3.6126,3.11877 -1.42716,0.8882 -3.00065,1.54066 -4.63756,1.923 -1.73075,0.82117 -3.61611,1.31502 -5.52718,1.4478 -3.47098,0.24116 -6.91722,-0.6964 -10.39572,-0.77292 -1.42842,-0.0314 -2.86874,0.0847 -4.24509,0.46813 -1.37634,0.38347 -2.68968,1.04253 -3.73937,2.01182 -1.13931,1.05205 -1.94435,2.46086 -2.27231,3.97654 -2.88059,-5.02334 -4.55565,-10.73258 -4.84571,-16.51597 -0.28584,-5.69923 0.77308,-11.46155 3.06648,-16.6868 z"
       id="path4775"
       inkscape:path-effect="#path-effect4777"
       inkscape:original-d="m 122.31636,807.1187 c 0,0 4.36093,6.3438 7.53979,8.31874 2.77283,1.72268 9.41888,2.68148 9.41888,2.68148 l 9.38653,-0.49918 c 0,0 4.42829,1.03219 6.4696,1.53257 1.92177,0.47106 2.78795,1.37502 2.78795,1.37502 0,0 1.76646,2.09554 1.926,3.38343 0.20203,1.63085 -1.31969,4.23757 -1.31969,4.23757 0,0 -2.25854,2.2837 -3.6126,3.11877 -1.42439,0.87845 -4.63756,1.923 -4.63756,1.923 0,0 -3.62996,1.61475 -5.52718,1.4478 -1.83336,-0.16133 -8.20139,-1.03493 -10.39572,-0.77292 -2.61232,0.31192 -4.85999,3.68375 -7.98446,2.47995 -3.5972,-1.38599 -2.27231,3.97654 -2.27231,3.97654 0,0 -4.5474,-10.91098 -4.84571,-16.51597 -0.29683,-5.57686 3.06648,-16.6868 3.06648,-16.6868 z"
       inkscape:connector-curvature="0"
       sodipodi:nodetypes="csccscscscssscsc" />
    <path
       style="fill:#b54800;fill-opacity:1;fill-rule:evenodd;stroke:none;stroke-width:1px;stroke-linecap:butt;stroke-linejoin:miter;stroke-opacity:1"
       d="m 71.545351,797.55735 c -4.614881,-3.33382 -8.572919,-7.57323 -11.582463,-12.40584 -3.195483,-5.13118 -5.317211,-10.92766 -6.189422,-16.90925 -5.991243,6.58855 -10.420712,14.58804 -12.825502,23.16248 -2.407235,8.58316 -2.781895,17.72923 -1.084746,26.48052 3.565132,-5.26588 8.194566,-9.80797 13.527395,-13.27216 5.483112,-3.56181 11.7054,-5.98008 18.154738,-7.05575 z"
       id="path4787"
       inkscape:path-effect="#path-effect4789"
       inkscape:original-d="m 71.545351,797.55735 c 0,0 -9.026802,-8.29051 -11.582463,-12.40584 -3.166486,-5.09893 -6.189422,-16.90925 -6.189422,-16.90925 0,0 -10.443276,14.66464 -12.825502,23.16248 -2.384605,8.50633 -1.084746,26.48052 -1.084746,26.48052 0,0 8.441415,-9.52552 13.527395,-13.27216 5.056848,-3.72517 18.154738,-7.05575 18.154738,-7.05575 z"
       inkscape:connector-curvature="0"
       sodipodi:nodetypes="cscscsc" />
    <path
       style="fill:#ff761b;fill-opacity:1;fill-rule:evenodd;stroke:none;stroke-width:1px;stroke-linecap:butt;stroke-linejoin:miter;stroke-opacity:1"
       d="m 89.19629,905.21169 33.36272,19.68949 c 14.07093,15.83797 34.88049,25.48142 56.0603,25.97917 20.88973,0.49093 41.84335,-7.91075 56.60724,-22.69756 l 10.1182,-33.3627 c 0.92001,1.44679 1.74286,2.95535 2.46118,4.51215 0.75603,1.63853 1.39624,3.33049 1.91426,5.05907 2.2881,-9.49708 3.61875,-19.22457 3.96524,-28.98725 0.35711,-10.06198 -0.33144,-20.16077 -2.05099,-30.08116 3.0852,2.73511 5.76656,5.925 7.93049,9.43452 2.01977,3.27572 3.58874,6.82899 4.6489,10.52843 1.00874,-12.72966 -0.63138,-25.66322 -4.78563,-37.73816 -5.01077,-14.56454 -13.69353,-27.84965 -25.02204,-38.28509 5.20697,1.51843 10.22536,3.68233 14.90383,6.42643 4.61125,2.70467 8.89177,5.9726 12.71612,9.708 -4.16566,-8.36557 -9.4713,-16.16254 -15.72423,-23.10778 -7.49596,-8.32589 -16.35464,-15.42211 -26.1159,-20.92007 13.38099,3.09764 26.14255,8.84735 37.32796,16.81809 12.614,8.98875 23.20343,20.80185 30.7648,34.31985 0.36481,-4.73369 -0.1478,-9.53357 -1.50406,-14.08345 -1.67606,-5.62272 -4.64601,-10.85549 -8.61414,-15.1773 5.46466,5.39489 10.25376,11.47337 14.22018,18.04869 3.6318,6.02061 6.57406,12.4568 8.75087,19.14254 2.0332,7.95838 3.22695,16.13095 3.55505,24.33839 0.35691,8.92792 -0.89629,17.84418 -3.00811,26.52608 l -4.92238,20.23641 c 4.72665,-3.30791 8.65159,-7.75302 11.3488,-12.85288 2.79283,-5.28066 4.26262,-11.2546 4.23871,-17.22827 2.20288,16.28697 -0.0913,33.15916 -6.56316,48.26657 -3.37698,7.88302 -7.85681,15.26874 -13.00392,22.12828 -3.12602,4.16605 -6.37071,8.24264 -9.4202,12.46503 l -10.66513,14.76715 c 4.97722,-2.3439 9.67098,-5.28902 13.9467,-8.75093 5.38657,-4.36133 10.10671,-9.54423 13.94671,-15.31404 -1.44902,8.73075 -5.2121,17.06671 -10.80186,23.92821 -4.87182,5.98023 -11.02855,10.77876 -17.36502,15.17728 -6.79171,4.71454 -13.85979,9.03575 -21.19353,12.85288 -9.58539,4.98908 -19.62078,9.11321 -29.94441,12.3059 5.6574,0.73684 11.46311,0.31546 16.95482,-1.23054 6.03687,-1.69947 11.68648,-4.75969 16.4079,-8.88766 -3.94924,5.59324 -9.24607,10.22799 -15.31404,13.39984 -5.81362,3.0389 -12.22755,4.7145 -18.59561,6.2896 -23.49921,5.8123 -47.6842,10.6142 -71.78454,8.3407 -23.6378,-2.2299 -46.57709,-11.4152 -65.221382,-26.11585 C 71.74495,982.85016 61.08499,972.70003 52.278527,961.13536 41.754558,947.31526 33.892586,931.4756 29.24877,914.7369 l 59.94752,-9.52521 z"
       id="path4807"
       inkscape:path-effect="#path-effect4809"
       inkscape:original-d="m 89.19629,905.21169 33.36272,19.68949 c 0,0 34.86471,25.58996 56.0603,25.97917 20.23813,0.37167 56.60724,-22.69756 56.60724,-22.69756 l 10.1182,-33.3627 c 0,0 1.74614,2.95525 2.46118,4.51215 0.75253,1.63852 1.91426,5.05907 1.91426,5.05907 0,0 3.63435,-19.24045 3.96524,-28.98725 0.34101,-10.04456 -2.05099,-30.08116 -2.05099,-30.08116 0,0 5.75725,5.94812 7.93049,9.43452 2.02939,3.2557 4.6489,10.52843 4.6489,10.52843 0,0 -0.40777,-25.83775 -4.78563,-37.73816 -5.26361,-14.30812 -25.02204,-38.28509 -25.02204,-38.28509 0,0 10.23479,3.69342 14.90383,6.42643 4.60229,2.69394 12.71612,9.708 12.71612,9.708 0,0 -9.39773,-16.26836 -15.72423,-23.10778 -7.574,-8.18808 -26.1159,-20.92007 -26.1159,-20.92007 0,0 26.3138,8.75984 37.32796,16.81809 12.39926,9.07163 30.7648,34.31985 30.7648,34.31985 0,0 -0.0579,-9.5892 -1.50406,-14.08345 -1.78183,-5.53754 -8.61414,-15.1773 -8.61414,-15.1773 0,0 10.22961,11.51122 14.22018,18.04869 3.65544,5.98845 8.75087,19.14254 8.75087,19.14254 0,0 3.42337,16.14056 3.55505,24.33839 0.14291,8.89756 -3.00811,26.52608 -3.00811,26.52608 l -4.92238,20.23641 c 0,0 8.69797,-7.78938 11.3488,-12.85288 2.74295,-5.23941 4.23871,-17.22827 4.23871,-17.22827 0,0 -0.91729,33.04283 -6.56316,48.26657 -2.38914,6.44213 -7.99517,15.09052 -13.00392,22.12828 -5.00874,7.03777 -9.4202,12.46503 -9.4202,12.46503 l -10.66513,14.76715 c 0,0 9.73574,-5.23115 13.9467,-8.75093 5.29748,-4.42796 13.94671,-15.31404 13.94671,-15.31404 0,0 -5.5878,16.89999 -10.80186,23.92821 -4.58041,6.17406 -17.36502,15.17728 -17.36502,15.17728 0,0 -13.8181,9.12931 -21.19353,12.85288 -9.63336,4.86357 -29.94441,12.3059 -29.94441,12.3059 0,0 11.51603,0.35958 16.95482,-1.23054 5.97019,-1.74553 16.4079,-8.88766 16.4079,-8.88766 0,0 -9.4361,10.01486 -15.31404,13.39984 -5.67045,3.2654 -18.59561,6.2896 -18.59561,6.2896 0,0 -47.90684,11.5255 -71.78454,8.3407 -23.213,-3.0961 -65.221382,-26.11585 -65.221382,-26.11585 0,0 -22.733025,-18.38761 -31.448461,-29.94439 C 42.458583,948.11386 29.24877,914.7369 29.24877,914.7369 Z"
       inkscape:connector-curvature="0"
       sodipodi:nodetypes="ccsccscscscscscscscscscsccscssccscscscscscscscc" />
    <path
       style="fill:#dd5800;fill-opacity:1;fill-rule:evenodd;stroke:none;stroke-width:1px;stroke-linecap:butt;stroke-linejoin:miter;stroke-opacity:1"
       d="m 117.08971,861.45733 c -10.26948,1.82036 -19.801181,7.52946 -26.252631,15.72426 -6.7164,8.53134 -10.015643,19.67877 -9.024348,30.49132 7.353697,0.98808 14.525202,3.31648 21.056809,6.8366 7.59723,4.09442 14.43204,9.82345 22.69759,12.30597 6.50951,1.9551 13.45032,1.74849 20.2364,1.36731 6.57195,-0.36915 13.36383,-0.95029 19.14254,-4.10199 4.07009,-2.21982 7.38589,-5.58604 11.21206,-8.20398 3.86781,-2.64643 8.26406,-4.51717 12.85285,-5.46929 1.17734,0.64426 2.58611,0.85434 3.90019,0.58162 1.31409,-0.27273 2.5229,-1.02607 3.34663,-2.08563 0.63655,-0.81879 1.04366,-1.81405 1.16345,-2.84422 0.11979,-1.03018 -0.0481,-2.09229 -0.47979,-3.0353 -4.34771,-4.61283 -10.08973,-7.89399 -16.27116,-9.29782 -6.87209,-1.56068 -14.25418,-0.77846 -20.6466,2.18775 -6.75702,4.77148 -15.66131,6.36704 -23.65471,4.23869 -6.72058,-1.78944 -12.59227,-6.01679 -17.36503,-11.07535 -3.16644,-3.35605 -5.98411,-7.25222 -6.97335,-11.75898 -0.6231,-2.83873 -0.48386,-5.84108 0.39931,-8.60995 0.88318,-2.76887 2.50808,-5.29735 4.65979,-7.25101 z"
       id="path4795"
       inkscape:path-effect="#path-effect4797"
       inkscape:original-d="m 117.08971,861.45733 c 0,0 -20.308181,7.78353 -26.252631,15.72426 -6.283672,8.39383 -9.024348,30.49132 -9.024348,30.49132 0,0 16.071661,4.4698 21.056809,6.8366 7.77457,3.69112 14.43155,9.90985 22.69759,12.30597 6.49353,1.88222 13.49297,1.8524 20.2364,1.36731 6.50888,-0.46826 13.1877,-1.4328 19.14254,-4.10199 4.22588,-1.89425 7.18632,-5.91493 11.21206,-8.20398 4.04752,-2.30132 12.85285,-5.46929 12.85285,-5.46929 0,0 5.58156,0.31626 7.24682,-1.50401 1.33179,-1.45574 0.68366,-5.87952 0.68366,-5.87952 0,0 -10.15747,-8.01522 -16.27116,-9.29782 -6.77328,-1.42097 -20.6466,2.18775 -20.6466,2.18775 0,0 -16.36523,5.91365 -23.65471,4.23869 -6.69107,-1.53743 -17.36503,-11.07535 -17.36503,-11.07535 0,0 -7.14277,-6.96765 -6.97335,-11.75898 0.15348,-4.34055 5.0591,-15.86096 5.0591,-15.86096 z"
       inkscape:connector-curvature="0"
       sodipodi:nodetypes="cscssssscscscscsc" />
    <path
       style="fill:#ff761b;fill-opacity:1;fill-rule:evenodd;stroke:none;stroke-width:1px;stroke-linecap:butt;stroke-linejoin:miter;stroke-opacity:1"
       d="m 143.34234,779.1444 c -12.58733,8.16129 -21.1382,22.25726 -22.56086,37.19123 -1.1777,12.36258 2.46055,25.12139 9.98147,35.0035 1.1151,2.96232 1.67459,6.13274 1.6408,9.29781 -0.0318,2.98277 -0.58992,5.95919 -1.6408,8.7509 -5.44723,-3.04323 -11.81421,-4.4139 -18.03115,-3.88172 -6.21694,0.53219 -12.25833,2.96504 -17.109086,6.8898 -5.524524,4.46991 -9.460593,10.86423 -10.963036,17.80995 -1.502442,6.94573 -0.560936,14.39513 2.622355,20.74864 l -57.154163,6.83661 c -1.231711,-4.47726 -2.326256,-8.99225 -3.281584,-13.53651 -0.962118,-4.57656 -1.783032,-9.1828 -2.46118,-13.80997 -0.525769,-4.31016 -0.971215,-8.63011 -1.336028,-12.95687 -0.603154,-7.15352 -0.984832,-14.36745 -0.16803,-21.49974 1.325892,-11.57764 5.869786,-22.76997 12.989586,-31.99538 5.678796,-10.16104 14.401933,-18.59502 24.748568,-23.92818 11.223696,-5.78524 24.313156,-7.87761 36.781032,-5.8795 1.286121,-0.37485 2.679126,-0.37485 3.965246,0 1.06819,0.31133 2.06085,0.87857 2.87138,1.64079 4.17523,-5.24586 9.54683,-9.53372 15.5875,-12.44265 7.26509,-3.49856 15.4886,-4.98071 23.51798,-4.23871 z"
       id="path4791"
       inkscape:path-effect="#path-effect4793"
       inkscape:original-d="m 143.34234,779.1444 c 0,0 -20.82563,23.18777 -22.56086,37.19123 -1.49203,12.04085 9.98147,35.0035 9.98147,35.0035 0,0 1.65759,6.15072 1.6408,9.29781 -0.0159,2.96772 -1.6408,8.7509 -1.6408,8.7509 0,0 -26.09893,-5.19853 -35.140236,3.00808 -9.671375,8.7786 -8.340681,38.55859 -8.340681,38.55859 l -57.154163,6.83661 c 0,0 -2.73076,-8.92642 -3.281584,-13.53651 -0.53531,-4.48034 -2.46118,-13.80997 -2.46118,-13.80997 0,0 -0.765345,-5.76654 -1.336028,-12.95687 -0.570677,-7.19034 -0.946692,-15.80448 -0.16803,-21.49974 1.532651,-11.21002 12.989586,-31.99538 12.989586,-31.99538 0,0 14.484536,-18.79771 24.748568,-23.92818 11.105869,-5.55128 36.781032,-5.8795 36.781032,-5.8795 0,0 2.687776,-0.33925 3.965246,0 1.06544,0.28294 2.87138,1.64079 2.87138,1.64079 0,0 9.51548,-9.73536 15.5875,-12.44265 6.83664,-3.04822 23.51798,-4.23871 23.51798,-4.23871 z"
       inkscape:connector-curvature="0"
       sodipodi:nodetypes="cscscsccscsscscscsc" />
  </g>
</svg>
