<?xml version="1.0" encoding="UTF-8" standalone="no"?>
<!-- Created with Inkscape (http://www.inkscape.org/) -->

<svg
   xmlns:dc="http://purl.org/dc/elements/1.1/"
   xmlns:cc="http://creativecommons.org/ns#"
   xmlns:rdf="http://www.w3.org/1999/02/22-rdf-syntax-ns#"
   xmlns:svg="http://www.w3.org/2000/svg"
   xmlns="http://www.w3.org/2000/svg"
   xmlns:sodipodi="http://sodipodi.sourceforge.net/DTD/sodipodi-0.dtd"
   xmlns:inkscape="http://www.inkscape.org/namespaces/inkscape"
   width="96mm"
   height="96mm"
   viewBox="0 0 340.15748 340.15748"
   id="svg2"
   version="1.1"
   inkscape:version="0.91 r13725"
   sodipodi:docname="lollypop.svg">
  <defs
     id="defs4">
    <marker
       inkscape:stockid="Arrow1Lstart"
       orient="auto"
       refY="0.0"
       refX="0.0"
       id="Arrow1Lstart"
       style="overflow:visible"
       inkscape:isstock="true">
      <path
         id="path4212"
         d="M 0.0,0.0 L 5.0,-5.0 L -12.5,0.0 L 5.0,5.0 L 0.0,0.0 z "
         style="fill-rule:evenodd;stroke:#000000;stroke-width:1pt;stroke-opacity:1;fill:#ffffff;fill-opacity:1"
         transform="scale(0.8) translate(12.5,0)" />
    </marker>
  </defs>
  <sodipodi:namedview
     id="base"
     pagecolor="#ffffff"
     bordercolor="#666666"
     borderopacity="1.0"
     inkscape:pageopacity="0.0"
     inkscape:pageshadow="2"
     inkscape:zoom="1.07"
     inkscape:cx="235.96168"
     inkscape:cy="145.33981"
     inkscape:document-units="px"
     inkscape:current-layer="layer1"
     showgrid="false"
     showguides="false"
     inkscape:window-width="1920"
     inkscape:window-height="1122"
     inkscape:window-x="0"
     inkscape:window-y="32"
     inkscape:window-maximized="1" />
  <metadata
     id="metadata7">
    <rdf:RDF>
      <cc:Work
         rdf:about="">
        <dc:format>image/svg+xml</dc:format>
        <dc:type
           rdf:resource="http://purl.org/dc/dcmitype/StillImage" />
        <dc:title></dc:title>
      </cc:Work>
    </rdf:RDF>
  </metadata>
  <g
     inkscape:label="1. réteg"
     inkscape:groupmode="layer"
     id="layer1"
     transform="translate(0,-712.20472)">
    <circle
       style="opacity:0.32300002;fill:#dd4178;fill-opacity:1;stroke:none;stroke-width:3.0104773;stroke-linejoin:round;stroke-miterlimit:4;stroke-dasharray:none;stroke-dashoffset:0;stroke-opacity:1"
       id="circle4586"
       cx="170.07874"
       cy="882.28345"
       r="144.54729" />
    <circle
       r="123.45747"
       cy="882.28345"
       cx="170.07874"
       id="circle4192"
       style="opacity:1;fill:#ffffff;fill-opacity:1;stroke:#dd4178;stroke-width:2.56411672;stroke-linejoin:round;stroke-miterlimit:4;stroke-dasharray:none;stroke-dashoffset:0;stroke-opacity:1" />
    <path
       style="opacity:1;fill:#dd4178;fill-opacity:1;stroke:none;stroke-width:11.60000038;stroke-linejoin:round;stroke-miterlimit:4;stroke-dasharray:none;stroke-dashoffset:0;stroke-opacity:1"
       d="m 259.15397,796.85444 c -3.03823,-0.69424 -6.04927,-1.34949 -8.92433,-1.79689 -3.53711,-0.55043 -6.95268,-0.91735 -10.25445,-1.11179 -3.30179,-0.19443 -6.49009,-0.21623 -9.56937,-0.0741 -3.07928,0.14212 -6.05069,0.44822 -8.92033,0.90745 -2.86963,0.45924 -5.63649,1.07202 -8.30933,1.82893 -2.67285,0.75692 -5.25153,1.65717 -7.74044,2.69233 -2.4889,1.03516 -4.88975,2.20566 -7.20756,3.49962 -2.31782,1.29395 -4.5532,2.7115 -6.71278,4.24482 -2.15958,1.53331 -4.24186,3.18268 -6.25604,4.93592 -2.01419,1.75324 -3.95973,3.61121 -5.84138,5.56494 -1.88165,1.95372 -3.70081,4.00308 -5.46278,6.13785 -1.76196,2.13477 -3.46709,4.3543 -5.12222,6.65068 -3.31026,4.59275 -6.41904,9.4889 -9.37906,14.61145 -2.96,5.12256 -5.77103,10.4708 -8.48361,15.96764 -1.59111,3.20928 -3.24341,6.25625 -4.95396,9.14669 -1.71055,2.89043 -3.47898,5.62433 -5.30251,8.21318 -1.82354,2.58886 -3.703,5.03125 -5.63305,7.33578 -1.93005,2.30453 -3.91143,4.47297 -5.94154,6.51045 -2.03009,2.03748 -4.10832,3.94553 -6.232,5.73321 -2.12368,1.78767 -4.29164,3.4549 -6.50244,5.01004 -2.2108,1.55515 -4.4634,2.99709 -6.75484,4.33697 -2.29145,1.33986 -4.6216,2.57611 -6.98723,3.71797 -2.36563,1.14185 -4.768214,2.18995 -7.201559,3.15105 -2.433344,0.9611 -4.897273,1.83662 -7.391867,2.63423 -4.98919,1.59522 -10.095161,2.87948 -15.290549,3.9243 -5.195388,1.04482 -10.481562,1.84947 -15.831417,2.48199 -1.036241,0.12251 -2.100166,0.17031 -3.141043,0.28044 a 123.45747,123.45747 0 0 0 33.629992,50.42296 c 4.696006,-0.6675 9.359,-1.44055 13.942383,-2.47196 5.06151,-1.13903 10.04691,-2.52503 14.93799,-4.21478 2.44554,-0.84486 4.86725,-1.76485 7.26366,-2.76844 2.39642,-1.00359 4.76846,-2.09091 7.11141,-3.26724 2.34297,-1.17635 4.658,-2.443 6.94316,-3.80611 2.28515,-1.36313 4.53984,-2.82313 6.76286,-4.38705 2.223,-1.56393 4.41401,-3.23128 6.57055,-5.01004 2.15652,-1.77876 4.27851,-3.6695 6.36421,-5.67712 2.0857,-2.00762 4.13533,-4.13174 6.14587,-6.38224 2.01053,-2.25052 3.98247,-4.62603 5.91349,-7.13346 1.93103,-2.50742 3.81992,-5.14835 5.6671,-7.92673 1.84717,-2.77837 3.6517,-5.6947 5.41069,-8.75805 2.91254,-5.80095 5.98056,-11.31099 9.22481,-16.49049 1.62212,-2.58973 3.28933,-5.09602 5.00203,-7.51606 1.7127,-2.42003 3.47209,-4.75246 5.28048,-6.99323 1.80839,-2.24076 3.66576,-4.39042 5.57495,-6.44234 1.90918,-2.05192 3.87036,-4.0059 5.88545,-5.8594 2.01508,-1.85351 4.08388,-3.6069 6.20996,-5.25243 2.12609,-1.64554 4.30833,-3.18341 6.55052,-4.61141 2.2422,-1.428 4.54368,-2.74543 6.90709,-3.94633 2.36341,-1.2009 4.78996,-2.28499 7.27968,-3.24922 2.48974,-0.96423 5.04316,-1.80806 7.66431,-2.52606 2.62116,-0.718 5.30927,-1.31065 8.06696,-1.77285 2.75768,-0.46219 5.5843,-0.79475 8.48362,-0.99159 2.89931,-0.19683 5.87225,-0.25837 8.91831,-0.18029 3.04607,0.078 6.16512,0.29647 9.36304,0.65906 2.5226,0.28602 5.13252,0.73557 7.75244,1.20393 a 123.45747,123.45747 0 0 0 -2.56412,-7.71238 l -21.6187,-37.44612 a 123.45747,123.45747 0 0 0 -5.29651,-6.02767 z"
       id="path4202"
       inkscape:connector-curvature="0" />
    <path
       style="opacity:1;fill:#dd4178;fill-opacity:1;stroke:none;stroke-width:11.60000038;stroke-linejoin:round;stroke-miterlimit:4;stroke-dasharray:none;stroke-dashoffset:0;stroke-opacity:1"
       d="m 288.44299,917.12152 c -0.37695,-1.05899 -0.70029,-2.22726 -1.09575,-3.24921 -1.29188,-3.33845 -2.68219,-6.48052 -4.16469,-9.43716 -1.4825,-2.95663 -3.05686,-5.72768 -4.71957,-8.32336 -1.66273,-2.59567 -3.4119,-5.01611 -5.24442,-7.27167 -1.83253,-2.25556 -3.74929,-4.3458 -5.74122,-6.28208 -1.99194,-1.9363 -4.06104,-3.71873 -6.20196,-5.35661 -2.14093,-1.63787 -4.35315,-3.1309 -6.63265,-4.49121 -2.27951,-1.36031 -4.62561,-2.58833 -7.0333,-3.69193 -2.40767,-1.10359 -4.87643,-2.08302 -7.40187,-2.95073 -2.52545,-0.86772 -5.10763,-1.62296 -7.74044,-2.27566 -2.63279,-0.65269 -5.31716,-1.20214 -8.04691,-1.66066 -2.72975,-0.45852 -5.50508,-0.82659 -8.32136,-1.11178 -5.63257,-0.5704 -11.42758,-0.81515 -17.34385,-0.81732 -5.91627,-0.002 -11.95231,0.23976 -18.06901,0.63903 -3.57486,0.2267 -7.04023,0.31661 -10.39869,0.28045 -3.35846,-0.0362 -6.6119,-0.19998 -9.76568,-0.48478 -3.15378,-0.2848 -6.20791,-0.69074 -9.16872,-1.20995 -2.96081,-0.5192 -5.82826,-1.15165 -8.60782,-1.89103 -2.77955,-0.73938 -5.47096,-1.58474 -8.08098,-2.53007 -2.61001,-0.94532 -5.13799,-1.98998 -7.59018,-3.12701 -2.45219,-1.13704 -4.82737,-2.3654 -7.13346,-3.67991 -2.30608,-1.31452 -4.54309,-2.71497 -6.71477,-4.19273 -2.1717,-1.47777 -4.27915,-3.0347 -6.32817,-4.66149 -2.04901,-1.62679 -4.03955,-3.32458 -5.97759,-5.08616 -3.8761,-3.52316 -7.541202,-7.30118 -11.043736,-11.2781 -3.502533,-3.97694 -6.841462,-8.15117 -10.064158,-12.46802 -1.662989,-2.22761 -3.226368,-4.5779 -4.83376,-6.87304 a 123.45747,123.45747 0 0 0 -26.125945,55.63532 c 0.459282,0.60804 0.877274,1.261 1.342154,1.86299 3.205271,4.15066 6.544984,8.15533 10.062155,11.96922 3.517171,3.81388 7.210959,7.43646 11.119853,10.82738 1.954448,1.69546 3.962336,3.33431 6.029681,4.90788 2.067345,1.57357 4.194029,3.08238 6.38425,4.52327 2.19022,1.44089 4.44379,2.81315 6.766864,4.1106 2.323074,1.29744 4.715624,2.52066 7.18153,3.66387 2.465902,1.14323 5.005522,2.2069 7.624242,3.18512 2.61872,0.97823 5.31751,1.86983 8.09901,2.67229 2.7815,0.80245 5.64554,1.5155 8.5998,2.13143 2.95427,0.61591 5.99765,1.13589 9.13467,1.55449 3.13701,0.4186 6.36784,0.73501 9.69757,0.94552 3.32973,0.21051 6.75809,0.31483 10.29052,0.30648 6.48003,-0.37813 12.78664,-0.47626 18.89434,-0.25641 3.05384,0.10993 6.0583,0.2997 9.01046,0.57293 2.95217,0.27322 5.85122,0.62999 8.69596,1.07573 2.84475,0.44572 5.63383,0.98113 8.36543,1.60858 2.73161,0.62744 5.40614,1.34711 8.01888,2.16547 2.61272,0.81836 5.16416,1.73395 7.65229,2.75242 2.48811,1.01847 4.91188,2.13962 7.26967,3.36741 2.35777,1.2278 4.64931,2.56211 6.87103,4.00843 2.2217,1.44632 4.37444,3.00546 6.45435,4.67951 2.07992,1.67406 4.08729,3.46365 6.01968,5.37464 1.93238,1.91098 3.78981,3.94266 5.56893,6.09978 1.77913,2.15713 3.48006,4.44054 5.10019,6.85301 1.62012,2.41247 3.16001,4.95524 4.61541,7.63225 1.4554,2.67701 2.82565,5.48678 4.1106,8.43755 0.26169,0.60094 0.4767,1.2765 0.73117,1.88903 a 123.45747,123.45747 0 0 0 29.87997,-51.074 z"
       id="path4195"
       inkscape:connector-curvature="0" />
    <path
       style="opacity:1;fill:#dd4178;fill-opacity:1;stroke:none;stroke-width:11.60000038;stroke-linejoin:round;stroke-miterlimit:4;stroke-dasharray:none;stroke-dashoffset:0;stroke-opacity:1"
       d="m 264.45048,802.88211 20.58686,37.6525 c -4.9473,-13.65661 -11.23392,-26.53939 -20.58686,-37.6525 z"
       id="path4204"
       inkscape:connector-curvature="0"
       sodipodi:nodetypes="ccc" />
    <path
       style="opacity:1;fill:#dd4178;fill-opacity:1;stroke:none;stroke-width:11.60000038;stroke-linejoin:round;stroke-miterlimit:4;stroke-dasharray:none;stroke-dashoffset:0;stroke-opacity:1"
       d="m 129.40967,765.86469 c -0.54986,1.27001 -1.18684,2.52016 -1.71074,3.79609 -1.99195,4.85117 -3.78823,9.74669 -5.33257,14.6996 -1.54434,4.9529 -2.83595,9.96349 -3.81813,15.04415 -0.49109,2.54033 -0.90491,5.09917 -1.23398,7.67632 -0.32907,2.57715 -0.57443,5.17328 -0.72717,7.79052 -0.15274,2.61722 -0.21419,5.25414 -0.17628,7.9147 0.038,2.66056 0.17578,5.34378 0.41867,8.05092 0.2429,2.70716 0.5915,5.43818 1.05369,8.19517 0.46219,2.75698 1.03698,5.53932 1.73279,8.3494 0.6958,2.81008 1.5122,5.64924 2.45594,8.51567 0.94373,2.86643 2.01518,5.76191 3.22117,8.68795 1.20598,2.92602 2.54591,5.88135 4.02847,8.87024 1.48255,2.98889 3.10839,6.00955 4.88183,9.06455 3.5675,5.4228 6.80407,10.83473 9.66752,16.23406 1.43173,2.69967 2.77098,5.39774 4.01045,8.09099 1.23946,2.69327 2.37912,5.38247 3.41548,8.06896 1.03636,2.68649 1.96806,5.36957 2.79048,8.04892 0.82242,2.67936 1.53578,5.35502 2.13343,8.02689 0.59764,2.67186 1.08028,5.34084 1.44231,8.00485 0.36203,2.66401 0.60356,5.32302 0.71915,7.97881 0.11559,2.6558 0.10565,5.30755 -0.036,7.95477 -0.1417,2.64722 -0.41551,5.29045 -0.82532,7.92873 -0.40982,2.63828 -0.95588,5.2717 -1.64465,7.90069 -0.68877,2.62898 -1.51944,5.25331 -2.49801,7.87264 -0.97856,2.61933 -2.10624,5.23328 -3.38544,7.84258 -1.27918,2.60931 -2.71024,5.21362 -4.3009,7.81255 -1.57475,2.57293 -3.30976,5.13997 -5.20035,7.70239 a 123.45747,123.45747 0 0 0 29.58751,3.754 123.45747,123.45747 0 0 0 30.09431,-3.8422 c 0.13264,-0.1629 0.30155,-0.3279 0.4327,-0.4908 2.24524,-2.78797 4.2725,-5.56111 6.09177,-8.32331 1.81927,-2.76221 3.43123,-5.51346 4.84779,-8.25125 1.41656,-2.7378 2.63679,-5.46234 3.6739,-8.17713 1.0371,-2.7148 1.89121,-5.41982 2.57213,-8.11303 0.68091,-2.69321 1.18849,-5.37589 1.53647,-8.04892 0.34798,-2.67304 0.53661,-5.33656 0.57491,-7.99083 0.0384,-2.65426 -0.0724,-5.29782 -0.32051,-7.93474 -0.2481,-2.63691 -0.63458,-5.2657 -1.14583,-7.88666 -0.51127,-2.62096 -1.14791,-5.23416 -1.89906,-7.84059 -0.75114,-2.60642 -1.61636,-5.20723 -2.58415,-7.80052 -0.96778,-2.59329 -2.03798,-5.17889 -3.19913,-7.76047 -2.32231,-5.16313 -5.00853,-10.30604 -7.96478,-15.43077 -2.95627,-5.12472 -6.18329,-10.23303 -9.5874,-15.33061 -1.98377,-2.98257 -3.79482,-5.93563 -5.44274,-8.86223 -1.64792,-2.92659 -3.13292,-5.82631 -4.46316,-8.69996 -1.33025,-2.87366 -2.50492,-5.72198 -3.53568,-8.54572 -1.03077,-2.82374 -1.91682,-5.62264 -2.66628,-8.39949 -0.74946,-2.77685 -1.36264,-5.53026 -1.84897,-8.26327 -0.48634,-2.733 -0.84635,-5.44488 -1.08775,-8.13706 -0.24139,-2.69218 -0.36397,-5.36449 -0.3786,-8.01888 -0.0147,-2.65438 0.0785,-5.29107 0.27244,-7.9107 0.19393,-2.61962 0.48706,-5.22265 0.87139,-7.81053 0.38434,-2.58789 0.85973,-5.16121 1.41627,-7.7204 1.1131,-5.11837 2.55396,-10.18266 4.24683,-15.20442 1.69285,-5.02174 3.63809,-10.00062 5.76525,-14.95 1.34016,-3.1182 2.85144,-6.20761 4.31693,-9.30493 a 123.45747,123.45747 0 0 0 -20.58905,-1.867 123.45747,123.45747 0 0 0 -40.6693,7.03931 z"
       id="circle4174"
       inkscape:connector-curvature="0" />
    <circle
       style="opacity:0.75899999;fill:#000000;fill-opacity:1;stroke:none;stroke-width:11.60000038;stroke-linejoin:round;stroke-miterlimit:4;stroke-dasharray:none;stroke-dashoffset:0;stroke-opacity:1"
       id="circle4500"
       cx="170.07874"
       cy="887.50665"
       r="73.124809" />
    <circle
       r="73.124809"
       cy="882.28345"
       cx="170.07874"
       id="circle4167"
       style="opacity:1;fill:#ffffff;fill-opacity:1;stroke:none;stroke-width:11.60000038;stroke-linejoin:round;stroke-miterlimit:4;stroke-dasharray:none;stroke-dashoffset:0;stroke-opacity:1" />
    <path
       sodipodi:type="star"
       style="opacity:1;fill:#dd4178;fill-opacity:1;stroke:none;stroke-width:2.5;stroke-linejoin:round;stroke-miterlimit:4;stroke-dasharray:none;stroke-dashoffset:0;stroke-opacity:1"
       id="path4588"
       sodipodi:sides="3"
       sodipodi:cx="159.28809"
       sodipodi:cy="882.28345"
       sodipodi:r1="48.633923"
       sodipodi:r2="24.316961"
       sodipodi:arg1="2.0943951"
       sodipodi:arg2="3.1415927"
       inkscape:flatsided="true"
       inkscape:rounded="0.05"
       inkscape:randomized="0"
       d="m 134.97112,924.40166 c -3.64754,-2.10591 -3.64754,-82.13051 0,-84.23643 3.64755,-2.10591 72.95089,37.9064 72.95089,42.11822 0,4.21182 -69.30334,44.22412 -72.95089,42.11821 z"
       inkscape:transform-center-x="-10.790654" />
  </g>
</svg>
