<?xml version="1.0" encoding="UTF-8" standalone="no"?>
<!-- Created with Inkscape (http://www.inkscape.org/) -->

<svg
   xmlns:dc="http://purl.org/dc/elements/1.1/"
   xmlns:cc="http://creativecommons.org/ns#"
   xmlns:rdf="http://www.w3.org/1999/02/22-rdf-syntax-ns#"
   xmlns:svg="http://www.w3.org/2000/svg"
   xmlns="http://www.w3.org/2000/svg"
   xmlns:sodipodi="http://sodipodi.sourceforge.net/DTD/sodipodi-0.dtd"
   xmlns:inkscape="http://www.inkscape.org/namespaces/inkscape"
   width="96mm"
   height="96mm"
   viewBox="0 0 340.15748 340.15748"
   id="svg4209"
   version="1.1"
   inkscape:version="0.91 r13725"
   sodipodi:docname="preferences-desktop.svg">
  <defs
     id="defs4211">
    <inkscape:path-effect
       effect="spiro"
       id="path-effect5033"
       is_visible="true" />
    <inkscape:path-effect
       effect="spiro"
       id="path-effect5021"
       is_visible="true" />
    <inkscape:path-effect
       effect="spiro"
       id="path-effect5009"
       is_visible="true" />
    <inkscape:path-effect
       effect="spiro"
       id="path-effect4993"
       is_visible="true" />
    <inkscape:path-effect
       effect="spiro"
       id="path-effect4981"
       is_visible="true" />
    <inkscape:path-effect
       effect="spiro"
       id="path-effect4969"
       is_visible="true" />
    <inkscape:path-effect
       effect="spiro"
       id="path-effect4941"
       is_visible="true" />
    <inkscape:path-effect
       effect="spiro"
       id="path-effect4937"
       is_visible="true" />
    <inkscape:path-effect
       effect="spiro"
       id="path-effect4933"
       is_visible="true" />
    <inkscape:path-effect
       effect="spiro"
       id="path-effect4839"
       is_visible="true" />
    <inkscape:path-effect
       effect="spiro"
       id="path-effect4831"
       is_visible="true" />
    <inkscape:path-effect
       effect="spiro"
       id="path-effect4899"
       is_visible="true" />
    <inkscape:path-effect
       effect="spiro"
       id="path-effect4835"
       is_visible="true" />
    <inkscape:path-effect
       effect="spiro"
       id="path-effect4851"
       is_visible="true" />
    <inkscape:path-effect
       effect="spiro"
       id="path-effect4835-3"
       is_visible="true" />
    <inkscape:path-effect
       effect="spiro"
       id="path-effect4855"
       is_visible="true" />
    <inkscape:path-effect
       effect="spiro"
       id="path-effect4855-5"
       is_visible="true" />
    <inkscape:path-effect
       effect="spiro"
       id="path-effect4877"
       is_visible="true" />
  </defs>
  <sodipodi:namedview
     id="base"
     pagecolor="#949494"
     bordercolor="#666666"
     borderopacity="1.0"
     inkscape:pageopacity="0"
     inkscape:pageshadow="2"
     inkscape:zoom="1.0824912"
     inkscape:cx="140.28218"
     inkscape:cy="249.18936"
     inkscape:document-units="px"
     inkscape:current-layer="layer1"
     showgrid="false"
     inkscape:window-width="1920"
     inkscape:window-height="1137"
     inkscape:window-x="0"
     inkscape:window-y="28"
     inkscape:window-maximized="1"
     showguides="false"
     inkscape:object-paths="false"
     inkscape:snap-intersection-paths="true"
     inkscape:object-nodes="true"
     inkscape:snap-smooth-nodes="true"
     inkscape:snap-nodes="false" />
  <metadata
     id="metadata4214">
    <rdf:RDF>
      <cc:Work
         rdf:about="">
        <dc:format>image/svg+xml</dc:format>
        <dc:type
           rdf:resource="http://purl.org/dc/dcmitype/StillImage" />
        <dc:title></dc:title>
      </cc:Work>
    </rdf:RDF>
  </metadata>
  <g
     inkscape:label="1. réteg"
     inkscape:groupmode="layer"
     id="layer1"
     transform="translate(0,-712.20472)">
    <path
       style="opacity:1;fill:#c83737;fill-opacity:1;stroke:none;stroke-width:30.79999924;stroke-linejoin:round;stroke-miterlimit:4;stroke-dasharray:none;stroke-dashoffset:0;stroke-opacity:1"
       d="m 170.53152,792.28175 a 90.492788,90.492788 0 0 0 -7.75075,0.27452 90.492788,90.492788 0 0 0 -8.96172,1.22048 90.492788,90.492788 0 0 0 -8.79654,2.10942 90.492788,90.492788 0 0 0 -8.54104,2.97812 90.492788,90.492788 0 0 0 -8.20234,3.81477 90.492788,90.492788 0 0 0 -6.61701,3.92528 L 94.559461,833.707 a 90.492788,90.492788 0 0 0 -2.831959,4.47195 90.492788,90.492788 0 0 0 -4.053632,8.08706 90.492788,90.492788 0 0 0 -3.225319,8.45073 90.492788,90.492788 0 0 0 -2.366105,8.73117 90.492788,90.492788 0 0 0 -1.481935,8.92252 90.492788,90.492788 0 0 0 -0.235304,3.64125 l 48.092193,48.09218 86.94813,-86.94811 -44.87401,-44.874 z"
       id="rect4196"
       inkscape:connector-curvature="0" />
    <path
       style="opacity:1;fill:#3d3d3d;fill-opacity:1;stroke:none;stroke-width:30.79999924;stroke-linejoin:round;stroke-miterlimit:4;stroke-dasharray:none;stroke-dashoffset:0;stroke-opacity:1"
       d="m 153.00498,730.11058 c -7.80373,0 -14.0861,6.28239 -14.0861,14.08611 l 0,26.31355 a 116.10395,116.10395 0 0 0 -25.80611,10.73958 L 94.47033,762.60738 c -5.518064,-5.51805 -14.403089,-5.51805 -19.921154,0 l -24.145919,24.14593 c -5.518065,5.51806 -5.518065,14.40309 0,19.92116 l 18.560436,18.56042 a 116.10395,116.10395 0 0 0 -10.582704,25.88813 l -26.389618,0 c -7.803722,0 -14.086112,6.28238 -14.086111,14.08609 l 0,34.14869 c 0,7.80373 6.282389,14.08611 14.086111,14.08611 l 26.313561,0 a 116.10395,116.10395 0 0 0 10.739573,25.80612 l -18.641248,18.64124 c -5.518065,5.51807 -5.518065,14.4031 0,19.92116 l 24.145919,24.14717 c 5.518065,5.518 14.40309,5.518 19.921154,0 l 18.56043,-18.5605 a 116.10395,116.10395 0 0 0 25.88812,10.58151 l 0,26.38969 c 0,7.8035 6.28237,14.0861 14.0861,14.0861 l 34.14752,0 c 7.80371,0 14.0861,-6.2826 14.0861,-14.0861 l 0,-26.31362 a 116.10395,116.10395 0 0 0 25.80611,-10.73958 l 18.64243,18.6425 c 5.51808,5.518 14.4031,5.518 19.92117,0 l 24.14592,-24.14717 c 5.51805,-5.51806 5.51805,-14.40308 0,-19.92116 l -18.55926,-18.55924 a 116.10395,116.10395 0 0 0 10.58152,-25.88812 l 26.38961,0 c 7.80372,0 14.08612,-6.28238 14.08612,-14.08611 l 0,-34.14869 c 0,-7.80371 -6.2824,-14.08609 -14.08612,-14.08609 l -26.31355,0 A 116.10395,116.10395 0 0 0 271.11297,825.3157 l 18.64126,-18.64123 c 5.51805,-5.51807 5.51805,-14.4031 0,-19.92116 l -24.14592,-24.14593 c -5.51807,-5.51805 -14.40309,-5.51805 -19.92117,0 l -18.56042,18.56045 A 116.10395,116.10395 0 0 0 201.2386,770.58632 l 0,-26.38963 c 0,-7.80372 -6.28239,-14.08611 -14.0861,-14.08611 l -34.14752,0 z m 18.81595,62.12482 a 90.492788,90.492788 0 0 1 9.0271,0.58469 90.492788,90.492788 0 0 1 8.9225,1.48193 90.492788,90.492788 0 0 1 8.73118,2.3661 90.492788,90.492788 0 0 1 8.45071,3.22532 90.492788,90.492788 0 0 1 8.08707,4.05245 90.492788,90.492788 0 0 1 7.64141,4.84037 90.492788,90.492788 0 0 1 7.1209,5.57834 90.492788,90.492788 0 0 1 4.68586,4.36619 l -24.45015,24.45014 a 55.917715,55.917715 0 0 1 0.15449,0.14498 55.917715,55.917715 0 0 1 3.68879,4.19862 55.917715,55.917715 0 0 1 3.25028,4.54682 55.917715,55.917715 0 0 1 2.78204,4.84867 55.917715,55.917715 0 0 1 2.28293,5.1018 55.917715,55.917715 0 0 1 1.76239,5.30384 55.917715,55.917715 0 0 1 1.22406,5.45357 55.917715,55.917715 0 0 1 0.67382,5.54864 55.917715,55.917715 0 0 1 0.14023,3.9562 55.917715,55.917715 0 0 1 -0.27926,5.58191 55.917715,55.917715 0 0 1 -0.83546,5.52725 55.917715,55.917715 0 0 1 -1.3833,5.41553 55.917715,55.917715 0 0 1 -1.91688,5.25036 55.917715,55.917715 0 0 1 -2.43028,5.03286 55.917715,55.917715 0 0 1 -2.92227,4.76549 55.917715,55.917715 0 0 1 -3.38219,4.44938 55.917715,55.917715 0 0 1 -3.81002,4.09047 55.917715,55.917715 0 0 1 -4.19981,3.6888 55.917715,55.917715 0 0 1 -4.54563,3.25147 55.917715,55.917715 0 0 1 -4.84867,2.78085 55.917715,55.917715 0 0 1 -5.10181,2.28291 55.917715,55.917715 0 0 1 -5.30502,1.76241 55.917715,55.917715 0 0 1 -5.45355,1.22404 55.917715,55.917715 0 0 1 -5.54865,0.67384 55.917715,55.917715 0 0 1 -3.955,0.14022 55.917715,55.917715 0 0 1 -5.58311,-0.27927 55.917715,55.917715 0 0 1 -5.52605,-0.83546 55.917715,55.917715 0 0 1 -5.41555,-1.38329 55.917715,55.917715 0 0 1 -5.25035,-1.91689 55.917715,55.917715 0 0 1 -5.03407,-2.43027 55.917715,55.917715 0 0 1 -4.76429,-2.92227 55.917715,55.917715 0 0 1 -4.45055,-3.3822 55.917715,55.917715 0 0 1 -3.04825,-2.84028 l -24.49412,24.49532 a 90.492788,90.492788 0 0 1 -6.06917,-6.70853 90.492788,90.492788 0 0 1 -5.368004,-7.28015 90.492788,90.492788 0 0 1 -4.615746,-7.77926 90.492788,90.492788 0 0 1 -3.814765,-8.20114 90.492788,90.492788 0 0 1 -2.976943,-8.54223 90.492788,90.492788 0 0 1 -2.109411,-8.79535 90.492788,90.492788 0 0 1 -1.221676,-8.96292 90.492788,90.492788 0 0 1 -0.31968,-9.04016 90.492788,90.492788 0 0 1 0.583506,-9.02708 90.492788,90.492788 0 0 1 1.481935,-8.92252 90.492788,90.492788 0 0 1 2.366105,-8.73117 90.492788,90.492788 0 0 1 3.225319,-8.45073 90.492788,90.492788 0 0 1 4.053632,-8.08706 90.492788,90.492788 0 0 1 4.839167,-7.64142 90.492788,90.492788 0 0 1 5.579541,-7.11969 90.492788,90.492788 0 0 1 4.36619,-4.68705 90.492788,90.492788 0 0 1 6.70732,-6.06798 90.492788,90.492788 0 0 1 7.28014,-5.36919 90.492788,90.492788 0 0 1 7.77927,-4.61456 90.492788,90.492788 0 0 1 8.20234,-3.81477 90.492788,90.492788 0 0 1 8.54104,-2.97812 90.492788,90.492788 0 0 1 8.79654,-2.10942 90.492788,90.492788 0 0 1 8.96172,-1.22048 90.492788,90.492788 0 0 1 9.04016,-0.32087 z"
       id="path4198"
       inkscape:connector-curvature="0" />
    <path
       style="opacity:1;fill:#661c1c;fill-opacity:1;stroke:none;stroke-width:30.79999924;stroke-linejoin:round;stroke-miterlimit:4;stroke-dasharray:none;stroke-dashoffset:0;stroke-opacity:1"
       id="path4202"
       sodipodi:type="arc"
       sodipodi:cx="-503.70993"
       sodipodi:cy="744.27319"
       sodipodi:rx="56.2393"
       sodipodi:ry="56.2393"
       sodipodi:start="0"
       sodipodi:end="3.1415927"
       d="m -447.47063,744.27319 a 56.2393,56.2393 0 0 1 -28.11965,48.70467 56.2393,56.2393 0 0 1 -56.2393,-10e-6 56.2393,56.2393 0 0 1 -28.11965,-48.70466 l 56.2393,0 z"
       transform="matrix(0.70710678,-0.70710678,0.70710678,0.70710678,0,0)" />
    <path
       style="opacity:1;fill:#545454;fill-opacity:1;stroke:none;stroke-width:30.79999924;stroke-linejoin:round;stroke-miterlimit:4;stroke-dasharray:none;stroke-dashoffset:0;stroke-opacity:1"
       d="m 172.6263,787.96739 a 95.493662,95.493662 0 0 0 -9.53974,0.33861 95.493662,95.493662 0 0 0 -9.45697,1.28793 95.493662,95.493662 0 0 0 -9.28267,2.22599 95.493662,95.493662 0 0 0 -9.01303,3.14271 95.493662,95.493662 0 0 0 -8.65563,4.02557 95.493662,95.493662 0 0 0 -8.20916,4.86957 95.493662,95.493662 0 0 0 -7.68247,5.66591 95.493662,95.493662 0 0 0 -7.078,6.40331 95.493662,95.493662 0 0 0 -4.607462,4.94606 95.493662,95.493662 0 0 0 -5.887882,7.51316 95.493662,95.493662 0 0 0 -5.106593,8.06371 95.493662,95.493662 0 0 0 -4.277648,8.53398 95.493662,95.493662 0 0 0 -3.403558,8.91773 95.493662,95.493662 0 0 0 -2.496862,9.21367 95.493662,95.493662 0 0 0 -1.56383,9.4156 95.493662,95.493662 0 0 0 -0.615751,9.52595 95.493662,95.493662 0 0 0 0.337345,9.53975 95.493662,95.493662 0 0 0 1.289188,9.45822 95.493662,95.493662 0 0 0 2.225983,9.28142 95.493662,95.493662 0 0 0 3.141457,9.01428 95.493662,95.493662 0 0 0 4.025579,8.65438 95.493662,95.493662 0 0 0 4.870825,8.20915 95.493662,95.493662 0 0 0 5.664661,7.68247 95.493662,95.493662 0 0 0 6.404548,7.07925 l 25.84774,-25.84899 a 59.007876,59.007876 0 0 1 -1.09857,-1.02333 59.007876,59.007876 0 0 1 -3.89264,-4.4319 59.007876,59.007876 0 0 1 -3.43116,-4.79683 59.007876,59.007876 0 0 1 -2.93454,-5.11662 59.007876,59.007876 0 0 1 -2.40907,-5.38374 59.007876,59.007876 0 0 1 -1.8598,-5.59818 59.007876,59.007876 0 0 1 -1.29169,-5.75497 59.007876,59.007876 0 0 1 -0.71105,-5.85526 59.007876,59.007876 0 0 1 -0.14799,-4.17356 59.007876,59.007876 0 0 1 0.29472,-5.89165 59.007876,59.007876 0 0 1 0.88159,-5.83145 59.007876,59.007876 0 0 1 1.45849,-5.71481 59.007876,59.007876 0 0 1 2.02283,-5.5405 59.007876,59.007876 0 0 1 2.56583,-5.31226 59.007876,59.007876 0 0 1 3.08253,-5.02759 59.007876,59.007876 0 0 1 3.57034,-4.69526 59.007876,59.007876 0 0 1 4.02057,-4.31651 59.007876,59.007876 0 0 1 4.43064,-3.89265 59.007876,59.007876 0 0 1 4.79808,-3.43115 59.007876,59.007876 0 0 1 5.11664,-2.93453 59.007876,59.007876 0 0 1 5.38374,-2.40908 59.007876,59.007876 0 0 1 5.59694,-1.85978 59.007876,59.007876 0 0 1 5.75494,-1.29171 59.007876,59.007876 0 0 1 5.85528,-0.71106 59.007876,59.007876 0 0 1 4.17481,-0.14798 59.007876,59.007876 0 0 1 5.89039,0.29471 59.007876,59.007876 0 0 1 5.8327,0.8816 59.007876,59.007876 0 0 1 5.71482,1.45851 59.007876,59.007876 0 0 1 5.5405,2.02282 59.007876,59.007876 0 0 1 5.31101,2.56583 59.007876,59.007876 0 0 1 5.02884,3.08251 59.007876,59.007876 0 0 1 4.69525,3.57036 59.007876,59.007876 0 0 1 4.15349,3.86756 l 25.80134,-25.80133 a 95.493662,95.493662 0 0 0 -4.94482,-4.60746 95.493662,95.493662 0 0 0 -7.51442,-5.88663 95.493662,95.493662 0 0 0 -8.0637,-5.10786 95.493662,95.493662 0 0 0 -8.53397,-4.27638 95.493662,95.493662 0 0 0 -8.91773,-3.40357 95.493662,95.493662 0 0 0 -9.21368,-2.49686 95.493662,95.493662 0 0 0 -9.41559,-1.56383 95.493662,95.493662 0 0 0 -9.52596,-0.61701 z"
       id="path4184"
       inkscape:connector-curvature="0" />
    <path
       style="opacity:1;fill:#141414;fill-opacity:1;stroke:none;stroke-width:30.79999924;stroke-linejoin:round;stroke-miterlimit:4;stroke-dasharray:none;stroke-dashoffset:0;stroke-opacity:1"
       d="m 278.11027,775.10817 -43.62261,43.62262 -24.45015,24.45014 a 55.917715,55.917715 0 0 1 0.15449,0.14498 55.917715,55.917715 0 0 1 3.68879,4.19862 55.917715,55.917715 0 0 1 3.25028,4.54682 55.917715,55.917715 0 0 1 2.78204,4.84867 55.917715,55.917715 0 0 1 2.28293,5.1018 55.917715,55.917715 0 0 1 1.76239,5.30384 55.917715,55.917715 0 0 1 1.22406,5.45357 55.917715,55.917715 0 0 1 0.67382,5.54864 55.917715,55.917715 0 0 1 0.14023,3.9562 55.917715,55.917715 0 0 1 -0.27926,5.58191 55.917715,55.917715 0 0 1 -0.83546,5.52725 55.917715,55.917715 0 0 1 -1.3833,5.41553 55.917715,55.917715 0 0 1 -1.91688,5.25036 55.917715,55.917715 0 0 1 -2.43028,5.03286 55.917715,55.917715 0 0 1 -2.92227,4.76549 55.917715,55.917715 0 0 1 -3.38219,4.44938 55.917715,55.917715 0 0 1 -3.81002,4.09047 55.917715,55.917715 0 0 1 -4.19981,3.6888 55.917715,55.917715 0 0 1 -4.54563,3.25147 55.917715,55.917715 0 0 1 -4.84867,2.78085 55.917715,55.917715 0 0 1 -5.10181,2.28291 55.917715,55.917715 0 0 1 -5.30502,1.76241 55.917715,55.917715 0 0 1 -5.45355,1.22404 55.917715,55.917715 0 0 1 -5.54865,0.67384 55.917715,55.917715 0 0 1 -3.955,0.14022 55.917715,55.917715 0 0 1 -5.58311,-0.27927 55.917715,55.917715 0 0 1 -5.52605,-0.83546 55.917715,55.917715 0 0 1 -5.41555,-1.38329 55.917715,55.917715 0 0 1 -5.25035,-1.91689 55.917715,55.917715 0 0 1 -5.03407,-2.43027 55.917715,55.917715 0 0 1 -4.76429,-2.92227 55.917715,55.917715 0 0 1 -4.45055,-3.3822 55.917715,55.917715 0 0 1 -3.04825,-2.84028 l -24.49412,24.49412 0,9.9e-4 -43.608359,43.60715 11.645135,11.64511 c 5.518065,5.518 14.40309,5.518 19.921154,0 l 18.56043,-18.5604 a 116.10395,116.10395 0 0 0 25.88812,10.58152 l 0,26.38968 c 0,7.8036 6.28237,14.0861 14.0861,14.0861 l 34.14752,0 c 7.80371,0 14.0861,-6.2825 14.0861,-14.0861 l 0,-26.31363 a 116.10395,116.10395 0 0 0 25.80611,-10.73956 l 18.64243,18.64239 c 5.51808,5.518 14.4031,5.518 19.92117,0 l 24.14592,-24.14707 c 5.51805,-5.51806 5.51805,-14.40307 0,-19.92115 l -18.55926,-18.5592 a 116.10395,116.10395 0 0 0 10.58152,-25.88812 l 26.38961,0 c 7.80372,0 14.08612,-6.28239 14.08612,-14.08611 l 0,-34.1487 c 0,-7.8037 -6.2824,-14.08609 -14.08612,-14.08609 l -26.31355,0 a 116.10395,116.10395 0 0 0 -10.73958,-25.80732 l 18.64126,-18.64124 c 5.51805,-5.51807 5.51805,-14.40309 0,-19.92115 l -11.64396,-11.64508 z"
       id="path4161"
       inkscape:connector-curvature="0" />
    <path
       cx="160.65004"
       cy="775.96027"
       r="148.72406"
       id="path4179"
       style="opacity:0.503;fill:#000000;fill-opacity:1;stroke:none;stroke-width:30.79999924;stroke-linejoin:round;stroke-miterlimit:4;stroke-dasharray:none;stroke-dashoffset:0;stroke-opacity:1" />
    <path
       style="fill:none;fill-rule:evenodd;stroke:#ffffff;stroke-width:3.45970917;stroke-linecap:butt;stroke-linejoin:round;stroke-miterlimit:4;stroke-dasharray:none;stroke-dashoffset:0;stroke-opacity:1"
       d="M 316.1729,737.04554 24.871123,1028.3473"
       id="path4186"
       inkscape:connector-curvature="0" />
  </g>
</svg>
